G04 #@! TF.GenerationSoftware,KiCad,Pcbnew,5.1.2-f72e74a~84~ubuntu16.04.1*
G04 #@! TF.CreationDate,2019-11-12T20:40:15+10:00*
G04 #@! TF.ProjectId,SMD500,534d4435-3030-42e6-9b69-6361645f7063,rev?*
G04 #@! TF.SameCoordinates,Original*
G04 #@! TF.FileFunction,Legend,Bot*
G04 #@! TF.FilePolarity,Positive*
%FSLAX46Y46*%
G04 Gerber Fmt 4.6, Leading zero omitted, Abs format (unit mm)*
G04 Created by KiCad (PCBNEW 5.1.2-f72e74a~84~ubuntu16.04.1) date 2019-11-12 20:40:15*
%MOMM*%
%LPD*%
G04 APERTURE LIST*
%ADD10C,0.150000*%
G04 APERTURE END LIST*
D10*
X357914404Y-92877380D02*
X357914404Y-91877380D01*
X357914404Y-92353571D02*
X357342976Y-92353571D01*
X357342976Y-92877380D02*
X357342976Y-91877380D01*
X356723928Y-92877380D02*
X356819166Y-92829761D01*
X356866785Y-92782142D01*
X356914404Y-92686904D01*
X356914404Y-92401190D01*
X356866785Y-92305952D01*
X356819166Y-92258333D01*
X356723928Y-92210714D01*
X356581071Y-92210714D01*
X356485833Y-92258333D01*
X356438214Y-92305952D01*
X356390595Y-92401190D01*
X356390595Y-92686904D01*
X356438214Y-92782142D01*
X356485833Y-92829761D01*
X356581071Y-92877380D01*
X356723928Y-92877380D01*
X356057261Y-92210714D02*
X355866785Y-92877380D01*
X355676309Y-92401190D01*
X355485833Y-92877380D01*
X355295357Y-92210714D01*
X353723928Y-92877380D02*
X353723928Y-91877380D01*
X353723928Y-92829761D02*
X353819166Y-92877380D01*
X354009642Y-92877380D01*
X354104880Y-92829761D01*
X354152500Y-92782142D01*
X354200119Y-92686904D01*
X354200119Y-92401190D01*
X354152500Y-92305952D01*
X354104880Y-92258333D01*
X354009642Y-92210714D01*
X353819166Y-92210714D01*
X353723928Y-92258333D01*
X353104880Y-92877380D02*
X353200119Y-92829761D01*
X353247738Y-92782142D01*
X353295357Y-92686904D01*
X353295357Y-92401190D01*
X353247738Y-92305952D01*
X353200119Y-92258333D01*
X353104880Y-92210714D01*
X352962023Y-92210714D01*
X352866785Y-92258333D01*
X352819166Y-92305952D01*
X352771547Y-92401190D01*
X352771547Y-92686904D01*
X352819166Y-92782142D01*
X352866785Y-92829761D01*
X352962023Y-92877380D01*
X353104880Y-92877380D01*
X351676309Y-92210714D02*
X351438214Y-92877380D01*
X351200119Y-92210714D02*
X351438214Y-92877380D01*
X351533452Y-93115476D01*
X351581071Y-93163095D01*
X351676309Y-93210714D01*
X350676309Y-92877380D02*
X350771547Y-92829761D01*
X350819166Y-92782142D01*
X350866785Y-92686904D01*
X350866785Y-92401190D01*
X350819166Y-92305952D01*
X350771547Y-92258333D01*
X350676309Y-92210714D01*
X350533452Y-92210714D01*
X350438214Y-92258333D01*
X350390595Y-92305952D01*
X350342976Y-92401190D01*
X350342976Y-92686904D01*
X350390595Y-92782142D01*
X350438214Y-92829761D01*
X350533452Y-92877380D01*
X350676309Y-92877380D01*
X349485833Y-92210714D02*
X349485833Y-92877380D01*
X349914404Y-92210714D02*
X349914404Y-92734523D01*
X349866785Y-92829761D01*
X349771547Y-92877380D01*
X349628690Y-92877380D01*
X349533452Y-92829761D01*
X349485833Y-92782142D01*
X348247738Y-92877380D02*
X348247738Y-91877380D01*
X348152500Y-92496428D02*
X347866785Y-92877380D01*
X347866785Y-92210714D02*
X348247738Y-92591666D01*
X347438214Y-92210714D02*
X347438214Y-92877380D01*
X347438214Y-92305952D02*
X347390595Y-92258333D01*
X347295357Y-92210714D01*
X347152500Y-92210714D01*
X347057261Y-92258333D01*
X347009642Y-92353571D01*
X347009642Y-92877380D01*
X346390595Y-92877380D02*
X346485833Y-92829761D01*
X346533452Y-92782142D01*
X346581071Y-92686904D01*
X346581071Y-92401190D01*
X346533452Y-92305952D01*
X346485833Y-92258333D01*
X346390595Y-92210714D01*
X346247738Y-92210714D01*
X346152500Y-92258333D01*
X346104880Y-92305952D01*
X346057261Y-92401190D01*
X346057261Y-92686904D01*
X346104880Y-92782142D01*
X346152500Y-92829761D01*
X346247738Y-92877380D01*
X346390595Y-92877380D01*
X345723928Y-92210714D02*
X345533452Y-92877380D01*
X345342976Y-92401190D01*
X345152500Y-92877380D01*
X344962023Y-92210714D01*
X343819166Y-92877380D02*
X343819166Y-92210714D01*
X343819166Y-91877380D02*
X343866785Y-91925000D01*
X343819166Y-91972619D01*
X343771547Y-91925000D01*
X343819166Y-91877380D01*
X343819166Y-91972619D01*
X343485833Y-92210714D02*
X343104880Y-92210714D01*
X343342976Y-92877380D02*
X343342976Y-92020238D01*
X343295357Y-91925000D01*
X343200119Y-91877380D01*
X343104880Y-91877380D01*
X342104880Y-92210714D02*
X341866785Y-92877380D01*
X341628690Y-92210714D02*
X341866785Y-92877380D01*
X341962023Y-93115476D01*
X342009642Y-93163095D01*
X342104880Y-93210714D01*
X341104880Y-92877380D02*
X341200119Y-92829761D01*
X341247738Y-92782142D01*
X341295357Y-92686904D01*
X341295357Y-92401190D01*
X341247738Y-92305952D01*
X341200119Y-92258333D01*
X341104880Y-92210714D01*
X340962023Y-92210714D01*
X340866785Y-92258333D01*
X340819166Y-92305952D01*
X340771547Y-92401190D01*
X340771547Y-92686904D01*
X340819166Y-92782142D01*
X340866785Y-92829761D01*
X340962023Y-92877380D01*
X341104880Y-92877380D01*
X339914404Y-92210714D02*
X339914404Y-92877380D01*
X340342976Y-92210714D02*
X340342976Y-92734523D01*
X340295357Y-92829761D01*
X340200119Y-92877380D01*
X340057261Y-92877380D01*
X339962023Y-92829761D01*
X339914404Y-92782142D01*
X338676309Y-92877380D02*
X338676309Y-91877380D01*
X338247738Y-92877380D02*
X338247738Y-92353571D01*
X338295357Y-92258333D01*
X338390595Y-92210714D01*
X338533452Y-92210714D01*
X338628690Y-92258333D01*
X338676309Y-92305952D01*
X337342976Y-92877380D02*
X337342976Y-92353571D01*
X337390595Y-92258333D01*
X337485833Y-92210714D01*
X337676309Y-92210714D01*
X337771547Y-92258333D01*
X337342976Y-92829761D02*
X337438214Y-92877380D01*
X337676309Y-92877380D01*
X337771547Y-92829761D01*
X337819166Y-92734523D01*
X337819166Y-92639285D01*
X337771547Y-92544047D01*
X337676309Y-92496428D01*
X337438214Y-92496428D01*
X337342976Y-92448809D01*
X336962023Y-92210714D02*
X336723928Y-92877380D01*
X336485833Y-92210714D01*
X335723928Y-92829761D02*
X335819166Y-92877380D01*
X336009642Y-92877380D01*
X336104880Y-92829761D01*
X336152500Y-92734523D01*
X336152500Y-92353571D01*
X336104880Y-92258333D01*
X336009642Y-92210714D01*
X335819166Y-92210714D01*
X335723928Y-92258333D01*
X335676309Y-92353571D01*
X335676309Y-92448809D01*
X336152500Y-92544047D01*
X334628690Y-92210714D02*
X334247738Y-92210714D01*
X334485833Y-91877380D02*
X334485833Y-92734523D01*
X334438214Y-92829761D01*
X334342976Y-92877380D01*
X334247738Y-92877380D01*
X333771547Y-92877380D02*
X333866785Y-92829761D01*
X333914404Y-92782142D01*
X333962023Y-92686904D01*
X333962023Y-92401190D01*
X333914404Y-92305952D01*
X333866785Y-92258333D01*
X333771547Y-92210714D01*
X333628690Y-92210714D01*
X333533452Y-92258333D01*
X333485833Y-92305952D01*
X333438214Y-92401190D01*
X333438214Y-92686904D01*
X333485833Y-92782142D01*
X333533452Y-92829761D01*
X333628690Y-92877380D01*
X333771547Y-92877380D01*
X332866785Y-92877380D02*
X332962023Y-92829761D01*
X333009642Y-92782142D01*
X333057261Y-92686904D01*
X333057261Y-92401190D01*
X333009642Y-92305952D01*
X332962023Y-92258333D01*
X332866785Y-92210714D01*
X332723928Y-92210714D01*
X332628690Y-92258333D01*
X332581071Y-92305952D01*
X332533452Y-92401190D01*
X332533452Y-92686904D01*
X332581071Y-92782142D01*
X332628690Y-92829761D01*
X332723928Y-92877380D01*
X332866785Y-92877380D01*
X331342976Y-92877380D02*
X331342976Y-92210714D01*
X331342976Y-92305952D02*
X331295357Y-92258333D01*
X331200119Y-92210714D01*
X331057261Y-92210714D01*
X330962023Y-92258333D01*
X330914404Y-92353571D01*
X330914404Y-92877380D01*
X330914404Y-92353571D02*
X330866785Y-92258333D01*
X330771547Y-92210714D01*
X330628690Y-92210714D01*
X330533452Y-92258333D01*
X330485833Y-92353571D01*
X330485833Y-92877380D01*
X329581071Y-92877380D02*
X329581071Y-92353571D01*
X329628690Y-92258333D01*
X329723928Y-92210714D01*
X329914404Y-92210714D01*
X330009642Y-92258333D01*
X329581071Y-92829761D02*
X329676309Y-92877380D01*
X329914404Y-92877380D01*
X330009642Y-92829761D01*
X330057261Y-92734523D01*
X330057261Y-92639285D01*
X330009642Y-92544047D01*
X329914404Y-92496428D01*
X329676309Y-92496428D01*
X329581071Y-92448809D01*
X329104880Y-92210714D02*
X329104880Y-92877380D01*
X329104880Y-92305952D02*
X329057261Y-92258333D01*
X328962023Y-92210714D01*
X328819166Y-92210714D01*
X328723928Y-92258333D01*
X328676309Y-92353571D01*
X328676309Y-92877380D01*
X328295357Y-92210714D02*
X328057261Y-92877380D01*
X327819166Y-92210714D02*
X328057261Y-92877380D01*
X328152500Y-93115476D01*
X328200119Y-93163095D01*
X328295357Y-93210714D01*
X326533452Y-92877380D02*
X326628690Y-92829761D01*
X326676309Y-92782142D01*
X326723928Y-92686904D01*
X326723928Y-92401190D01*
X326676309Y-92305952D01*
X326628690Y-92258333D01*
X326533452Y-92210714D01*
X326390595Y-92210714D01*
X326295357Y-92258333D01*
X326247738Y-92305952D01*
X326200119Y-92401190D01*
X326200119Y-92686904D01*
X326247738Y-92782142D01*
X326295357Y-92829761D01*
X326390595Y-92877380D01*
X326533452Y-92877380D01*
X325628690Y-92877380D02*
X325723928Y-92829761D01*
X325771547Y-92734523D01*
X325771547Y-91877380D01*
X324819166Y-92877380D02*
X324819166Y-91877380D01*
X324819166Y-92829761D02*
X324914404Y-92877380D01*
X325104880Y-92877380D01*
X325200119Y-92829761D01*
X325247738Y-92782142D01*
X325295357Y-92686904D01*
X325295357Y-92401190D01*
X325247738Y-92305952D01*
X325200119Y-92258333D01*
X325104880Y-92210714D01*
X324914404Y-92210714D01*
X324819166Y-92258333D01*
X323152500Y-92829761D02*
X323247738Y-92877380D01*
X323438214Y-92877380D01*
X323533452Y-92829761D01*
X323581071Y-92782142D01*
X323628690Y-92686904D01*
X323628690Y-92401190D01*
X323581071Y-92305952D01*
X323533452Y-92258333D01*
X323438214Y-92210714D01*
X323247738Y-92210714D01*
X323152500Y-92258333D01*
X322581071Y-92877380D02*
X322676309Y-92829761D01*
X322723928Y-92782142D01*
X322771547Y-92686904D01*
X322771547Y-92401190D01*
X322723928Y-92305952D01*
X322676309Y-92258333D01*
X322581071Y-92210714D01*
X322438214Y-92210714D01*
X322342976Y-92258333D01*
X322295357Y-92305952D01*
X322247738Y-92401190D01*
X322247738Y-92686904D01*
X322295357Y-92782142D01*
X322342976Y-92829761D01*
X322438214Y-92877380D01*
X322581071Y-92877380D01*
X321819166Y-92877380D02*
X321819166Y-92210714D01*
X321819166Y-92305952D02*
X321771547Y-92258333D01*
X321676309Y-92210714D01*
X321533452Y-92210714D01*
X321438214Y-92258333D01*
X321390595Y-92353571D01*
X321390595Y-92877380D01*
X321390595Y-92353571D02*
X321342976Y-92258333D01*
X321247738Y-92210714D01*
X321104880Y-92210714D01*
X321009642Y-92258333D01*
X320962023Y-92353571D01*
X320962023Y-92877380D01*
X320485833Y-92210714D02*
X320485833Y-93210714D01*
X320485833Y-92258333D02*
X320390595Y-92210714D01*
X320200119Y-92210714D01*
X320104880Y-92258333D01*
X320057261Y-92305952D01*
X320009642Y-92401190D01*
X320009642Y-92686904D01*
X320057261Y-92782142D01*
X320104880Y-92829761D01*
X320200119Y-92877380D01*
X320390595Y-92877380D01*
X320485833Y-92829761D01*
X319152500Y-92210714D02*
X319152500Y-92877380D01*
X319581071Y-92210714D02*
X319581071Y-92734523D01*
X319533452Y-92829761D01*
X319438214Y-92877380D01*
X319295357Y-92877380D01*
X319200119Y-92829761D01*
X319152500Y-92782142D01*
X318819166Y-92210714D02*
X318438214Y-92210714D01*
X318676309Y-91877380D02*
X318676309Y-92734523D01*
X318628690Y-92829761D01*
X318533452Y-92877380D01*
X318438214Y-92877380D01*
X317723928Y-92829761D02*
X317819166Y-92877380D01*
X318009642Y-92877380D01*
X318104880Y-92829761D01*
X318152500Y-92734523D01*
X318152500Y-92353571D01*
X318104880Y-92258333D01*
X318009642Y-92210714D01*
X317819166Y-92210714D01*
X317723928Y-92258333D01*
X317676309Y-92353571D01*
X317676309Y-92448809D01*
X318152500Y-92544047D01*
X317247738Y-92877380D02*
X317247738Y-92210714D01*
X317247738Y-92401190D02*
X317200119Y-92305952D01*
X317152500Y-92258333D01*
X317057261Y-92210714D01*
X316962023Y-92210714D01*
X316676309Y-92829761D02*
X316581071Y-92877380D01*
X316390595Y-92877380D01*
X316295357Y-92829761D01*
X316247738Y-92734523D01*
X316247738Y-92686904D01*
X316295357Y-92591666D01*
X316390595Y-92544047D01*
X316533452Y-92544047D01*
X316628690Y-92496428D01*
X316676309Y-92401190D01*
X316676309Y-92353571D01*
X316628690Y-92258333D01*
X316533452Y-92210714D01*
X316390595Y-92210714D01*
X316295357Y-92258333D01*
X315676309Y-92782142D02*
X315628690Y-92829761D01*
X315676309Y-92877380D01*
X315723928Y-92829761D01*
X315676309Y-92782142D01*
X315676309Y-92877380D01*
X315866785Y-91925000D02*
X315771547Y-91877380D01*
X315533452Y-91877380D01*
X315438214Y-91925000D01*
X315390595Y-92020238D01*
X315390595Y-92115476D01*
X315438214Y-92210714D01*
X315485833Y-92258333D01*
X315581071Y-92305952D01*
X315628690Y-92353571D01*
X315676309Y-92448809D01*
X315676309Y-92496428D01*
X358057261Y-93527380D02*
X357485833Y-93527380D01*
X357771547Y-94527380D02*
X357771547Y-93527380D01*
X357152500Y-94527380D02*
X357152500Y-93860714D01*
X357152500Y-94051190D02*
X357104880Y-93955952D01*
X357057261Y-93908333D01*
X356962023Y-93860714D01*
X356866785Y-93860714D01*
X356533452Y-94527380D02*
X356533452Y-93860714D01*
X356533452Y-93527380D02*
X356581071Y-93575000D01*
X356533452Y-93622619D01*
X356485833Y-93575000D01*
X356533452Y-93527380D01*
X356533452Y-93622619D01*
X355628690Y-94479761D02*
X355723928Y-94527380D01*
X355914404Y-94527380D01*
X356009642Y-94479761D01*
X356057261Y-94432142D01*
X356104880Y-94336904D01*
X356104880Y-94051190D01*
X356057261Y-93955952D01*
X356009642Y-93908333D01*
X355914404Y-93860714D01*
X355723928Y-93860714D01*
X355628690Y-93908333D01*
X355200119Y-94527380D02*
X355200119Y-93527380D01*
X355104880Y-94146428D02*
X354819166Y-94527380D01*
X354819166Y-93860714D02*
X355200119Y-94241666D01*
X353200119Y-93860714D02*
X353200119Y-94860714D01*
X353200119Y-94479761D02*
X353295357Y-94527380D01*
X353485833Y-94527380D01*
X353581071Y-94479761D01*
X353628690Y-94432142D01*
X353676309Y-94336904D01*
X353676309Y-94051190D01*
X353628690Y-93955952D01*
X353581071Y-93908333D01*
X353485833Y-93860714D01*
X353295357Y-93860714D01*
X353200119Y-93908333D01*
X352295357Y-93860714D02*
X352295357Y-94527380D01*
X352723928Y-93860714D02*
X352723928Y-94384523D01*
X352676309Y-94479761D01*
X352581071Y-94527380D01*
X352438214Y-94527380D01*
X352342976Y-94479761D01*
X352295357Y-94432142D01*
X351438214Y-94479761D02*
X351533452Y-94527380D01*
X351723928Y-94527380D01*
X351819166Y-94479761D01*
X351866785Y-94384523D01*
X351866785Y-94003571D01*
X351819166Y-93908333D01*
X351723928Y-93860714D01*
X351533452Y-93860714D01*
X351438214Y-93908333D01*
X351390595Y-94003571D01*
X351390595Y-94098809D01*
X351866785Y-94194047D01*
X351009642Y-94479761D02*
X350914404Y-94527380D01*
X350723928Y-94527380D01*
X350628690Y-94479761D01*
X350581071Y-94384523D01*
X350581071Y-94336904D01*
X350628690Y-94241666D01*
X350723928Y-94194047D01*
X350866785Y-94194047D01*
X350962023Y-94146428D01*
X351009642Y-94051190D01*
X351009642Y-94003571D01*
X350962023Y-93908333D01*
X350866785Y-93860714D01*
X350723928Y-93860714D01*
X350628690Y-93908333D01*
X350295357Y-93860714D02*
X349914404Y-93860714D01*
X350152500Y-93527380D02*
X350152500Y-94384523D01*
X350104880Y-94479761D01*
X350009642Y-94527380D01*
X349914404Y-94527380D01*
X349581071Y-94527380D02*
X349581071Y-93860714D01*
X349581071Y-93527380D02*
X349628690Y-93575000D01*
X349581071Y-93622619D01*
X349533452Y-93575000D01*
X349581071Y-93527380D01*
X349581071Y-93622619D01*
X348962023Y-94527380D02*
X349057261Y-94479761D01*
X349104880Y-94432142D01*
X349152500Y-94336904D01*
X349152500Y-94051190D01*
X349104880Y-93955952D01*
X349057261Y-93908333D01*
X348962023Y-93860714D01*
X348819166Y-93860714D01*
X348723928Y-93908333D01*
X348676309Y-93955952D01*
X348628690Y-94051190D01*
X348628690Y-94336904D01*
X348676309Y-94432142D01*
X348723928Y-94479761D01*
X348819166Y-94527380D01*
X348962023Y-94527380D01*
X348200119Y-93860714D02*
X348200119Y-94527380D01*
X348200119Y-93955952D02*
X348152500Y-93908333D01*
X348057261Y-93860714D01*
X347914404Y-93860714D01*
X347819166Y-93908333D01*
X347771547Y-94003571D01*
X347771547Y-94527380D01*
X347247738Y-94479761D02*
X347247738Y-94527380D01*
X347295357Y-94622619D01*
X347342976Y-94670238D01*
X346152500Y-93860714D02*
X345914404Y-94527380D01*
X345676309Y-93860714D02*
X345914404Y-94527380D01*
X346009642Y-94765476D01*
X346057261Y-94813095D01*
X346152500Y-94860714D01*
X345152500Y-94527380D02*
X345247738Y-94479761D01*
X345295357Y-94432142D01*
X345342976Y-94336904D01*
X345342976Y-94051190D01*
X345295357Y-93955952D01*
X345247738Y-93908333D01*
X345152500Y-93860714D01*
X345009642Y-93860714D01*
X344914404Y-93908333D01*
X344866785Y-93955952D01*
X344819166Y-94051190D01*
X344819166Y-94336904D01*
X344866785Y-94432142D01*
X344914404Y-94479761D01*
X345009642Y-94527380D01*
X345152500Y-94527380D01*
X343962023Y-93860714D02*
X343962023Y-94527380D01*
X344390595Y-93860714D02*
X344390595Y-94384523D01*
X344342976Y-94479761D01*
X344247738Y-94527380D01*
X344104880Y-94527380D01*
X344009642Y-94479761D01*
X343962023Y-94432142D01*
X342295357Y-94479761D02*
X342390595Y-94527380D01*
X342581071Y-94527380D01*
X342676309Y-94479761D01*
X342723928Y-94432142D01*
X342771547Y-94336904D01*
X342771547Y-94051190D01*
X342723928Y-93955952D01*
X342676309Y-93908333D01*
X342581071Y-93860714D01*
X342390595Y-93860714D01*
X342295357Y-93908333D01*
X341438214Y-94527380D02*
X341438214Y-94003571D01*
X341485833Y-93908333D01*
X341581071Y-93860714D01*
X341771547Y-93860714D01*
X341866785Y-93908333D01*
X341438214Y-94479761D02*
X341533452Y-94527380D01*
X341771547Y-94527380D01*
X341866785Y-94479761D01*
X341914404Y-94384523D01*
X341914404Y-94289285D01*
X341866785Y-94194047D01*
X341771547Y-94146428D01*
X341533452Y-94146428D01*
X341438214Y-94098809D01*
X340962023Y-93860714D02*
X340962023Y-94527380D01*
X340962023Y-93955952D02*
X340914404Y-93908333D01*
X340819166Y-93860714D01*
X340676309Y-93860714D01*
X340581071Y-93908333D01*
X340533452Y-94003571D01*
X340533452Y-94527380D01*
X340009642Y-93527380D02*
X340104880Y-93717857D01*
X339723928Y-93860714D02*
X339342976Y-93860714D01*
X339581071Y-93527380D02*
X339581071Y-94384523D01*
X339533452Y-94479761D01*
X339438214Y-94527380D01*
X339342976Y-94527380D01*
X338247738Y-94527380D02*
X338247738Y-93527380D01*
X337819166Y-94527380D02*
X337819166Y-94003571D01*
X337866785Y-93908333D01*
X337962023Y-93860714D01*
X338104880Y-93860714D01*
X338200119Y-93908333D01*
X338247738Y-93955952D01*
X336914404Y-94527380D02*
X336914404Y-94003571D01*
X336962023Y-93908333D01*
X337057261Y-93860714D01*
X337247738Y-93860714D01*
X337342976Y-93908333D01*
X336914404Y-94479761D02*
X337009642Y-94527380D01*
X337247738Y-94527380D01*
X337342976Y-94479761D01*
X337390595Y-94384523D01*
X337390595Y-94289285D01*
X337342976Y-94194047D01*
X337247738Y-94146428D01*
X337009642Y-94146428D01*
X336914404Y-94098809D01*
X336533452Y-93860714D02*
X336295357Y-94527380D01*
X336057261Y-93860714D01*
X335295357Y-94479761D02*
X335390595Y-94527380D01*
X335581071Y-94527380D01*
X335676309Y-94479761D01*
X335723928Y-94384523D01*
X335723928Y-94003571D01*
X335676309Y-93908333D01*
X335581071Y-93860714D01*
X335390595Y-93860714D01*
X335295357Y-93908333D01*
X335247738Y-94003571D01*
X335247738Y-94098809D01*
X335723928Y-94194047D01*
X334200119Y-93860714D02*
X333819166Y-93860714D01*
X334057261Y-93527380D02*
X334057261Y-94384523D01*
X334009642Y-94479761D01*
X333914404Y-94527380D01*
X333819166Y-94527380D01*
X333342976Y-94527380D02*
X333438214Y-94479761D01*
X333485833Y-94432142D01*
X333533452Y-94336904D01*
X333533452Y-94051190D01*
X333485833Y-93955952D01*
X333438214Y-93908333D01*
X333342976Y-93860714D01*
X333200119Y-93860714D01*
X333104880Y-93908333D01*
X333057261Y-93955952D01*
X333009642Y-94051190D01*
X333009642Y-94336904D01*
X333057261Y-94432142D01*
X333104880Y-94479761D01*
X333200119Y-94527380D01*
X333342976Y-94527380D01*
X332438214Y-94527380D02*
X332533452Y-94479761D01*
X332581071Y-94432142D01*
X332628690Y-94336904D01*
X332628690Y-94051190D01*
X332581071Y-93955952D01*
X332533452Y-93908333D01*
X332438214Y-93860714D01*
X332295357Y-93860714D01*
X332200119Y-93908333D01*
X332152500Y-93955952D01*
X332104880Y-94051190D01*
X332104880Y-94336904D01*
X332152500Y-94432142D01*
X332200119Y-94479761D01*
X332295357Y-94527380D01*
X332438214Y-94527380D01*
X330914404Y-94527380D02*
X330914404Y-93860714D01*
X330914404Y-93955952D02*
X330866785Y-93908333D01*
X330771547Y-93860714D01*
X330628690Y-93860714D01*
X330533452Y-93908333D01*
X330485833Y-94003571D01*
X330485833Y-94527380D01*
X330485833Y-94003571D02*
X330438214Y-93908333D01*
X330342976Y-93860714D01*
X330200119Y-93860714D01*
X330104880Y-93908333D01*
X330057261Y-94003571D01*
X330057261Y-94527380D01*
X329152500Y-94527380D02*
X329152500Y-94003571D01*
X329200119Y-93908333D01*
X329295357Y-93860714D01*
X329485833Y-93860714D01*
X329581071Y-93908333D01*
X329152500Y-94479761D02*
X329247738Y-94527380D01*
X329485833Y-94527380D01*
X329581071Y-94479761D01*
X329628690Y-94384523D01*
X329628690Y-94289285D01*
X329581071Y-94194047D01*
X329485833Y-94146428D01*
X329247738Y-94146428D01*
X329152500Y-94098809D01*
X328676309Y-93860714D02*
X328676309Y-94527380D01*
X328676309Y-93955952D02*
X328628690Y-93908333D01*
X328533452Y-93860714D01*
X328390595Y-93860714D01*
X328295357Y-93908333D01*
X328247738Y-94003571D01*
X328247738Y-94527380D01*
X327866785Y-93860714D02*
X327628690Y-94527380D01*
X327390595Y-93860714D02*
X327628690Y-94527380D01*
X327723928Y-94765476D01*
X327771547Y-94813095D01*
X327866785Y-94860714D01*
X326104880Y-94527380D02*
X326200119Y-94479761D01*
X326247738Y-94432142D01*
X326295357Y-94336904D01*
X326295357Y-94051190D01*
X326247738Y-93955952D01*
X326200119Y-93908333D01*
X326104880Y-93860714D01*
X325962023Y-93860714D01*
X325866785Y-93908333D01*
X325819166Y-93955952D01*
X325771547Y-94051190D01*
X325771547Y-94336904D01*
X325819166Y-94432142D01*
X325866785Y-94479761D01*
X325962023Y-94527380D01*
X326104880Y-94527380D01*
X325200119Y-94527380D02*
X325295357Y-94479761D01*
X325342976Y-94384523D01*
X325342976Y-93527380D01*
X324390595Y-94527380D02*
X324390595Y-93527380D01*
X324390595Y-94479761D02*
X324485833Y-94527380D01*
X324676309Y-94527380D01*
X324771547Y-94479761D01*
X324819166Y-94432142D01*
X324866785Y-94336904D01*
X324866785Y-94051190D01*
X324819166Y-93955952D01*
X324771547Y-93908333D01*
X324676309Y-93860714D01*
X324485833Y-93860714D01*
X324390595Y-93908333D01*
X322723928Y-94479761D02*
X322819166Y-94527380D01*
X323009642Y-94527380D01*
X323104880Y-94479761D01*
X323152500Y-94432142D01*
X323200119Y-94336904D01*
X323200119Y-94051190D01*
X323152500Y-93955952D01*
X323104880Y-93908333D01*
X323009642Y-93860714D01*
X322819166Y-93860714D01*
X322723928Y-93908333D01*
X322152500Y-94527380D02*
X322247738Y-94479761D01*
X322295357Y-94432142D01*
X322342976Y-94336904D01*
X322342976Y-94051190D01*
X322295357Y-93955952D01*
X322247738Y-93908333D01*
X322152500Y-93860714D01*
X322009642Y-93860714D01*
X321914404Y-93908333D01*
X321866785Y-93955952D01*
X321819166Y-94051190D01*
X321819166Y-94336904D01*
X321866785Y-94432142D01*
X321914404Y-94479761D01*
X322009642Y-94527380D01*
X322152500Y-94527380D01*
X321390595Y-94527380D02*
X321390595Y-93860714D01*
X321390595Y-93955952D02*
X321342976Y-93908333D01*
X321247738Y-93860714D01*
X321104880Y-93860714D01*
X321009642Y-93908333D01*
X320962023Y-94003571D01*
X320962023Y-94527380D01*
X320962023Y-94003571D02*
X320914404Y-93908333D01*
X320819166Y-93860714D01*
X320676309Y-93860714D01*
X320581071Y-93908333D01*
X320533452Y-94003571D01*
X320533452Y-94527380D01*
X320057261Y-93860714D02*
X320057261Y-94860714D01*
X320057261Y-93908333D02*
X319962023Y-93860714D01*
X319771547Y-93860714D01*
X319676309Y-93908333D01*
X319628690Y-93955952D01*
X319581071Y-94051190D01*
X319581071Y-94336904D01*
X319628690Y-94432142D01*
X319676309Y-94479761D01*
X319771547Y-94527380D01*
X319962023Y-94527380D01*
X320057261Y-94479761D01*
X318723928Y-93860714D02*
X318723928Y-94527380D01*
X319152500Y-93860714D02*
X319152500Y-94384523D01*
X319104880Y-94479761D01*
X319009642Y-94527380D01*
X318866785Y-94527380D01*
X318771547Y-94479761D01*
X318723928Y-94432142D01*
X318390595Y-93860714D02*
X318009642Y-93860714D01*
X318247738Y-93527380D02*
X318247738Y-94384523D01*
X318200119Y-94479761D01*
X318104880Y-94527380D01*
X318009642Y-94527380D01*
X317295357Y-94479761D02*
X317390595Y-94527380D01*
X317581071Y-94527380D01*
X317676309Y-94479761D01*
X317723928Y-94384523D01*
X317723928Y-94003571D01*
X317676309Y-93908333D01*
X317581071Y-93860714D01*
X317390595Y-93860714D01*
X317295357Y-93908333D01*
X317247738Y-94003571D01*
X317247738Y-94098809D01*
X317723928Y-94194047D01*
X316819166Y-94527380D02*
X316819166Y-93860714D01*
X316819166Y-94051190D02*
X316771547Y-93955952D01*
X316723928Y-93908333D01*
X316628690Y-93860714D01*
X316533452Y-93860714D01*
X316247738Y-94479761D02*
X316152500Y-94527380D01*
X315962023Y-94527380D01*
X315866785Y-94479761D01*
X315819166Y-94384523D01*
X315819166Y-94336904D01*
X315866785Y-94241666D01*
X315962023Y-94194047D01*
X316104880Y-94194047D01*
X316200119Y-94146428D01*
X316247738Y-94051190D01*
X316247738Y-94003571D01*
X316200119Y-93908333D01*
X316104880Y-93860714D01*
X315962023Y-93860714D01*
X315866785Y-93908333D01*
X315390595Y-94432142D02*
X315342976Y-94479761D01*
X315390595Y-94527380D01*
X315438214Y-94479761D01*
X315390595Y-94432142D01*
X315390595Y-94527380D01*
X315390595Y-94146428D02*
X315438214Y-93575000D01*
X315390595Y-93527380D01*
X315342976Y-93575000D01*
X315390595Y-94146428D01*
X315390595Y-93527380D01*
M02*
