M48
; DRILL file {KiCad 5.1.2-f72e74a~84~ubuntu16.04.1} date Tue 12 Nov 2019 20:40:28 AEST
; FORMAT={-:-/ absolute / inch / decimal}
; #@! TF.CreationDate,2019-11-12T20:40:28+10:00
; #@! TF.GenerationSoftware,Kicad,Pcbnew,5.1.2-f72e74a~84~ubuntu16.04.1
; #@! TF.FileFunction,Plated,1,2,PTH
FMAT,2
INCH
T1C0.0157
T2C0.0228
T3C0.0236
T4C0.0268
T5C0.0315
T6C0.0315
T7C0.0354
T8C0.0394
T9C0.0472
T10C0.0591
T11C0.0787
T12C0.1060
T13C0.1063
T14C0.1109
T15C0.1181
T16C0.1260
T17C0.1575
%
G90
G05
T1
X0.2087Y-1.25
X0.2136Y-1.5876
X0.2136Y-1.622
X0.2136Y-1.6565
X0.2136Y-2.8622
X0.2136Y-2.9016
X0.2608Y-3.125
X0.3964Y-1.0925
X0.4262Y-0.9518
X0.438Y-1.1929
X0.4793Y-0.6329
X0.4872Y-1.3041
X0.4921Y-1.4813
X0.5059Y-0.9488
X0.5691Y-0.7498
X0.5691Y-1.0697
X0.5758Y-1.4813
X0.5895Y-0.5255
X0.6004Y-4.3898
X0.6299Y-8.7598
X0.6299Y-8.7943
X0.6344Y-1.9149
X0.6457Y-4.7638
X0.6545Y-1.0876
X0.659Y-1.9395
X0.6594Y-1.4813
X0.6644Y-8.7943
X0.6772Y-4.7638
X0.6885Y-1.969
X0.689Y-1.2992
X0.7136Y-0.5817
X0.753Y-3.9715
X0.7776Y-1.378
X0.7923Y-3.9715
X0.7972Y-4.2175
X0.7972Y-4.3406
X0.8052Y-1.3515
X0.8323Y-1.3244
X0.9006Y-3.1988
X0.9134Y-0.5837
X0.9173Y-4.2254
X0.9173Y-4.3435
X0.94Y-3.1988
X0.9646Y-8.4646
X0.9695Y-0.6939
X0.9695Y-1.8898
X0.9793Y-0.8071
X0.9793Y-0.9892
X0.9843Y-9.1043
X0.9843Y-9.1388
X0.9941Y-8.435
X1.003Y-8.3947
X1.0256Y-4.2254
X1.0256Y-4.3435
X1.0433Y-3.6909
X1.0507Y-3.8214
X1.0827Y-9.6063
X1.0827Y-9.6506
X1.0827Y-9.6949
X1.0833Y-9.5614
X1.0925Y-3.5384
X1.0925Y-3.7795
X1.1024Y-3.376
X1.1122Y-1.0925
X1.1122Y-1.127
X1.1171Y-4.0453
X1.1516Y-1.25
X1.1762Y-4.0453
X1.1762Y-4.5177
X1.1811Y-4.1929
X1.1811Y-9.6555
X1.1909Y-1.998
X1.1909Y-2.2293
X1.1983Y-1.2475
X1.2008Y-3.5285
X1.2106Y-4.4291
X1.2254Y-9.6555
X1.2303Y-3.9173
X1.2343Y-6.4528
X1.2374Y-4.7154
X1.2402Y-0.5709
X1.2648Y-8.6319
X1.2697Y-9.6555
X1.2703Y-9.5614
X1.2705Y-1.9114
X1.2728Y-4.7154
X1.2736Y-6.4528
X1.2841Y-9.0614
X1.2844Y-3.312
X1.3083Y-4.7154
X1.3083Y-6.4476
X1.3091Y-1.1467
X1.3091Y-6.6339
X1.314Y-8.5827
X1.314Y-9.6555
X1.3195Y-9.5614
X1.3303Y-0.5103
X1.3435Y-6.6339
X1.3435Y-8.5827
X1.3437Y-4.7154
X1.3484Y-1.25
X1.3583Y-4.0157
X1.3681Y-0.5103
X1.373Y-8.5827
X1.378Y-6.6339
X1.3791Y-4.7154
X1.3829Y-4.0404
X1.3845Y-0.9219
X1.3858Y-3.2697
X1.3878Y-1.2717
X1.3878Y-9.8622
X1.4024Y-3.6939
X1.4075Y-3.9075
X1.4198Y-4.3873
X1.4272Y-1.1024
X1.4469Y-4.6161
X1.4518Y-3.8041
X1.455Y-4.4274
X1.455Y-4.3472
X1.4592Y-4.3873
X1.4707Y-6.7224
X1.4764Y-4.5866
X1.4888Y-6.8085
X1.4937Y-6.5528
X1.4951Y-4.312
X1.4951Y-4.3514
X1.4951Y-4.3873
X1.4951Y-4.4252
X1.4951Y-4.4646
X1.503Y-0.5344
X1.5049Y-6.4528
X1.5108Y-4.0748
X1.5157Y-0.5709
X1.533Y-4.3873
X1.5362Y-4.3462
X1.5362Y-4.4284
X1.5502Y-4.5128
X1.5576Y-8.0684
X1.5642Y-3.3644
X1.5674Y-4.3873
X1.5945Y-9.8622
X1.6068Y-4.6038
X1.6161Y-1.253
X1.6191Y-1.127
X1.6193Y-1.0825
X1.6216Y-2.9503
X1.624Y-4.5226
X1.624Y-8.0807
X1.6496Y-3.936
X1.6609Y-2.97
X1.6634Y-0.9793
X1.7028Y-1.4764
X1.7126Y-3.6565
X1.7126Y-3.6909
X1.7126Y-3.8435
X1.7175Y-4.6211
X1.7341Y-3.3644
X1.7421Y-0.9498
X1.747Y-0.5709
X1.747Y-2.2195
X1.747Y-4.1043
X1.747Y-4.6506
X1.7667Y-3.5581
X1.7667Y-8.1053
X1.7815Y-1.0581
X1.7815Y-1.1024
X1.7815Y-1.4764
X1.7815Y-3.8435
X1.8135Y-8.1078
X1.8209Y-2.0079
X1.8353Y-9.0614
X1.8386Y-4.0128
X1.8504Y-0.9203
X1.8602Y-1.4715
X1.8642Y-7.1555
X1.8799Y-8.125
X1.8858Y-3.9803
X1.8898Y-7.1378
X1.8898Y-7.1693
X1.8947Y-1.8652
X1.8967Y-2.2224
X1.9094Y-4.0453
X1.9217Y-3.5557
X1.9283Y-3.3644
X1.9291Y-9.8622
X1.9341Y-0.5709
X1.9439Y-1.0581
X1.9439Y-1.0974
X1.9567Y-6.5906
X1.9587Y-6.3583
X1.9596Y-4.4347
X1.9713Y-1.9459
X1.9717Y-3.6041
X1.9783Y-6.1516
X1.9841Y-4.4103
X1.9857Y-4.0674
X1.9961Y-5.6004
X1.9961Y-5.6988
X2.0Y-5.7953
X2.0059Y-4.7146
X2.0079Y-5.3051
X2.0079Y-5.4035
X2.0079Y-5.502
X2.0217Y-3.564
X2.0276Y-7.1417
X2.0276Y-7.1693
X2.0323Y-8.4598
X2.0323Y-8.4992
X2.0325Y-8.2087
X2.0335Y-4.7146
X2.0354Y-5.8465
X2.0472Y-6.937
X2.0492Y-7.1555
X2.0669Y-6.2106
X2.0715Y-4.8085
X2.0768Y-0.5709
X2.0768Y-4.9705
X2.0768Y-6.1024
X2.0866Y-5.0295
X2.0945Y-6.9606
X2.1063Y-4.9016
X2.126Y-5.0591
X2.1309Y-3.8878
X2.1319Y-6.998
X2.1358Y-0.9203
X2.1496Y-7.5591
X2.1555Y-7.6526
X2.1555Y-7.751
X2.1555Y-7.8346
X2.1555Y-7.9528
X2.1654Y-5.7382
X2.1654Y-9.8622
X2.1693Y-4.8976
X2.1799Y-6.9107
X2.1801Y-0.5709
X2.185Y-3.435
X2.186Y-4.94
X2.1949Y-5.2657
X2.1949Y-5.3642
X2.1949Y-5.4626
X2.1949Y-5.561
X2.1954Y-6.9503
X2.1998Y-3.8878
X2.2244Y-7.0
X2.239Y-1.7866
X2.2392Y-4.9852
X2.2392Y-8.0118
X2.2441Y-7.5591
X2.2628Y-1.0738
X2.2687Y-7.8642
X2.2879Y-8.5258
X2.2884Y-7.797
X2.2931Y-7.6528
X2.2933Y-7.7067
X2.2982Y-7.6132
X2.3014Y-7.7528
X2.3041Y-1.0738
X2.3071Y-7.5
X2.3376Y-7.7116
X2.3425Y-7.3031
X2.3524Y-0.5709
X2.3642Y-1.3022
X2.3642Y-1.3366
X2.3642Y-1.3711
X2.3865Y-9.0614
X2.389Y-2.1626
X2.4065Y-4.1388
X2.4213Y-4.3406
X2.4311Y-3.435
X2.4409Y-5.8829
X2.4508Y-4.311
X2.4803Y-4.3406
X2.4902Y-9.8622
X2.5039Y-4.2953
X2.5256Y-4.9705
X2.5295Y-3.435
X2.5492Y-4.2815
X2.5492Y-4.9469
X2.5492Y-4.9941
X2.5492Y-7.5
X2.563Y-6.0394
X2.5689Y-4.3504
X2.5728Y-4.9705
X2.5835Y-8.5258
X2.6083Y-4.2618
X2.6093Y-6.9528
X2.6132Y-3.8878
X2.628Y-3.435
X2.6299Y-1.7598
X2.6299Y-1.7992
X2.6299Y-1.8386
X2.6378Y-4.3553
X2.6486Y-6.9528
X2.6649Y-3.9592
X2.6675Y-4.3256
X2.6722Y-2.0522
X2.6722Y-2.0965
X2.6722Y-2.1309
X2.6969Y-6.8602
X2.6969Y-7.1063
X2.6969Y-9.8622
X2.6978Y-5.8258
X2.6988Y-5.9528
X2.7067Y-3.9616
X2.7165Y-3.563
X2.7461Y-3.9813
X2.7707Y-3.8632
X2.7854Y-4.001
X2.8144Y-7.0528
X2.815Y-3.8632
X2.8199Y-2.8346
X2.8317Y-5.9085
X2.8335Y-6.1528
X2.835Y-6.0528
X2.8368Y-6.2528
X2.8396Y-2.8593
X2.8587Y-7.0528
X2.8587Y-8.1453
X2.8587Y-8.1825
X2.8587Y-8.3421
X2.8587Y-8.3766
X2.8593Y-2.8346
X2.8642Y-3.8632
X2.8668Y-3.2011
X2.8888Y-2.1949
X2.898Y-7.0528
X2.9085Y-3.8632
X2.9232Y-3.189
X2.9232Y-5.0886
X2.9232Y-5.128
X2.9278Y-9.0614
X2.9281Y-2.2146
X2.9429Y-8.0118
X2.9823Y-2.2293
X3.0266Y-2.1358
X3.0315Y-9.8622
X3.0413Y-2.2244
X3.0463Y-4.1339
X3.061Y-2.1358
X3.061Y-2.4902
X3.0659Y-8.5827
X3.0807Y-4.1339
X3.0906Y-2.313
X3.0906Y-4.5079
X3.0933Y-8.5258
X3.0955Y-2.1358
X3.1004Y-8.5827
X3.1014Y-5.8553
X3.1043Y-5.7933
X3.1152Y-4.1339
X3.1201Y-4.6998
X3.1225Y-4.5546
X3.1225Y-4.4611
X3.1299Y-4.5079
X3.1496Y-4.1339
X3.1693Y-4.4291
X3.1693Y-4.4685
X3.1693Y-4.5079
X3.1693Y-4.5472
X3.1693Y-4.5866
X3.172Y-8.5258
X3.1841Y-8.5827
X3.1841Y-4.1339
X3.1988Y-4.9705
X3.2087Y-4.5079
X3.216Y-4.4611
X3.216Y-4.5546
X3.2185Y-8.5827
X3.2283Y-3.3809
X3.2303Y-1.6801
X3.2333Y-2.8346
X3.2382Y-9.8622
X3.2406Y-3.9838
X3.2429Y-8.5258
X3.248Y-4.5079
X3.252Y-8.4114
X3.2579Y-5.8465
X3.2677Y-2.8691
X3.2677Y-3.3415
X3.2677Y-3.3809
X3.2677Y-3.4203
X3.2677Y-2.8346
X3.2776Y-2.4016
X3.2827Y-8.9614
X3.2899Y-3.9838
X3.3022Y-3.3809
X3.3022Y-2.8346
X3.3445Y-7.1132
X3.3701Y-4.4498
X3.3907Y-7.1752
X3.3923Y-7.7593
X3.3991Y-7.1324
X3.4129Y-7.719
X3.4154Y-6.688
X3.4154Y-7.0866
X3.4297Y-7.6776
X3.4301Y-7.249
X3.4375Y-7.7633
X3.4449Y-7.2884
X3.4888Y-9.0614
X3.4941Y-3.7844
X3.5054Y-5.9238
X3.5089Y-5.876
X3.5089Y-5.9695
X3.5212Y-4.6629
X3.5262Y-4.7464
X3.5408Y-5.844
X3.5607Y-4.7464
X3.5925Y-9.8622
X3.5951Y-4.7464
X3.6122Y-4.4587
X3.6122Y-5.251
X3.6175Y-5.2018
X3.6296Y-4.7464
X3.6467Y-4.4587
X3.6713Y-1.6831
X3.6713Y-3.2825
X3.7008Y-4.6161
X3.7253Y-3.8632
X3.7402Y-4.6161
X3.7402Y-4.9557
X3.7402Y-4.9902
X3.752Y-3.2707
X3.7894Y-3.4744
X3.7918Y-4.7564
X3.7943Y-2.2589
X3.7992Y-9.8622
X3.8189Y-3.4301
X3.8219Y-1.936
X3.8435Y-1.8996
X3.8536Y-3.1986
X3.8583Y-2.313
X3.873Y-2.2392
X3.8952Y-4.5989
X3.9222Y-2.8888
X3.9222Y-3.4498
X3.9247Y-4.3233
X3.941Y-7.1269
X3.9567Y-0.6988
X3.9567Y-1.0925
X3.9665Y-3.5384
X3.9764Y-2.8888
X3.9813Y-7.1112
X3.9887Y-3.1816
X4.0108Y-4.7589
X4.0207Y-0.6988
X4.0236Y-1.1437
X4.0256Y-2.9035
X4.0281Y-5.1255
X4.0354Y-1.4173
X4.0354Y-3.2283
X4.04Y-9.0614
X4.065Y-4.0354
X4.0764Y-2.8854
X4.0896Y-2.5197
X4.1093Y-4.7589
X4.1191Y-2.9035
X4.1339Y-3.1102
X4.1339Y-3.3465
X4.1437Y-9.8622
X4.1585Y-2.8888
X4.1806Y-5.6619
X4.188Y-2.8543
X4.2126Y-0.6988
X4.2126Y-1.1663
X4.2219Y-3.4306
X4.2274Y-2.8888
X4.2323Y-3.1102
X4.2717Y-1.122
X4.2815Y-5.6594
X4.3209Y-0.6988
X4.3209Y-3.5384
X4.3356Y-3.1102
X4.3356Y-3.4006
X4.3415Y-1.4262
X4.3504Y-4.9508
X4.3504Y-9.8622
X4.3602Y-6.9882
X4.3898Y-2.3376
X4.4218Y-6.9562
X4.4291Y-0.6988
X4.4488Y-4.9606
X4.4537Y-3.4006
X4.4611Y-6.7692
X4.471Y-6.9168
X4.4941Y-1.2441
X4.498Y-1.122
X4.503Y-2.9085
X4.5054Y-6.8233
X4.5089Y-3.4291
X4.5285Y-4.4134
X4.53Y-6.8824
X4.5317Y-1.2443
X4.5374Y-0.6988
X4.5764Y-4.0555
X4.5768Y-2.0522
X4.5912Y-9.0614
X4.6038Y-3.4326
X4.6358Y-4.9803
X4.6457Y-0.6988
X4.6752Y-8.6024
X4.69Y-3.2087
X4.6949Y-9.8622
X4.7096Y-8.6024
X4.7343Y-3.5384
X4.753Y-1.4262
X4.7539Y-0.6988
X4.7835Y-1.3976
X4.7982Y-1.122
X4.8524Y-3.6565
X4.8622Y-0.6988
X4.8622Y-8.6024
X4.8917Y-3.4498
X4.8967Y-6.4813
X4.8967Y-8.6024
X4.9016Y-9.8622
X4.9262Y-3.6713
X4.9311Y-1.3976
X4.9469Y-1.2441
X4.9656Y-3.6319
X4.9705Y-0.6988
X4.9754Y-1.122
X4.9754Y-6.5748
X4.9803Y-2.0522
X4.9872Y-1.2441
X5.0246Y-3.5876
X5.0295Y-5.9547
X5.064Y-7.8543
X5.0689Y-7.8072
X5.0787Y-0.6988
X5.0886Y-1.3337
X5.091Y-5.8588
X5.1033Y-7.8593
X5.128Y-3.5089
X5.1403Y-7.8765
X5.1413Y-9.0614
X5.1427Y-3.2037
X5.1476Y-5.7677
X5.1486Y-7.2825
X5.1526Y-1.6585
X5.1673Y-3.2726
X5.1722Y-6.0974
X5.1722Y-2.3376
X5.1772Y-7.2539
X5.187Y-0.6988
X5.187Y-1.2057
X5.187Y-7.9823
X5.2061Y-6.5705
X5.2067Y-1.3878
X5.2067Y-1.8848
X5.2067Y-8.2087
X5.2141Y-3.2899
X5.2165Y-7.8839
X5.2214Y-1.7815
X5.2239Y-2.0595
X5.2264Y-1.2057
X5.2264Y-3.5138
X5.2313Y-7.2293
X5.2362Y-7.6673
X5.2441Y-8.4488
X5.2461Y-1.8602
X5.251Y-4.9803
X5.2534Y-3.3095
X5.2559Y-1.9833
X5.2559Y-2.9085
X5.2559Y-9.8622
X5.2657Y-1.2057
X5.2657Y-8.002
X5.2682Y-7.2072
X5.2764Y-3.6114
X5.2781Y-7.6501
X5.2854Y-7.8642
X5.2953Y-0.6988
X5.2953Y-7.2392
X5.3051Y-1.2057
X5.3076Y-3.3194
X5.3174Y-8.5212
X5.3248Y-3.5138
X5.3248Y-8.0217
X5.3273Y-5.8784
X5.3346Y-1.8602
X5.3346Y-4.7982
X5.3386Y-8.4291
X5.3396Y-7.2392
X5.3592Y-1.7815
X5.3593Y-7.1604
X5.3764Y-2.9061
X5.3764Y-3.6443
X5.3775Y-8.1511
X5.3839Y-1.2057
X5.3888Y-7.19
X5.3981Y-8.5034
X5.3996Y-8.7106
X5.3996Y-8.8091
X5.4035Y-0.6988
X5.4183Y-7.1309
X5.4232Y-9.8622
X5.4281Y-8.0659
X5.4321Y-1.3917
X5.4429Y-4.749
X5.4429Y-7.8248
X5.4498Y-7.1722
X5.4651Y-8.1668
X5.4711Y-9.7053
X5.4724Y-1.2057
X5.4724Y-9.749
X5.4764Y-2.9045
X5.4764Y-3.6132
X5.4897Y-8.8706
X5.4921Y-7.1309
X5.497Y-7.0866
X5.5112Y-9.7053
X5.5118Y-0.6988
X5.5118Y-7.7313
X5.5118Y-9.749
X5.5142Y-7.0449
X5.5266Y-1.2057
X5.529Y-8.1816
X5.5512Y-7.8248
X5.5536Y-7.1088
X5.56Y-7.0285
X5.561Y-1.378
X5.5803Y-9.021
X5.5807Y-8.1791
X5.5817Y-4.4134
X5.5925Y-4.9094
X5.5979Y-7.1088
X5.6029Y-7.0251
X5.6037Y-5.8055
X5.6053Y-9.7096
X5.6102Y-7.7313
X5.6148Y-9.021
X5.6171Y-8.2037
X5.6171Y-9.2136
X5.625Y-3.1693
X5.625Y-9.1339
X5.6368Y-7.0551
X5.6398Y-1.9882
X5.6398Y-9.1781
X5.6422Y-9.5054
X5.6471Y-9.2889
X5.6471Y-9.3971
X5.6496Y-1.378
X5.6496Y-9.6161
X5.6516Y-7.0157
X5.6574Y-1.7815
X5.6594Y-7.8248
X5.6614Y-8.9055
X5.6644Y-6.9783
X5.6654Y-8.2205
X5.6764Y-2.9063
X5.689Y-0.9508
X5.689Y-8.4941
X5.6996Y-8.6656
X5.7116Y-8.2352
X5.7185Y-6.9636
X5.7185Y-8.1791
X5.7234Y-5.0049
X5.7283Y-3.1496
X5.7382Y-1.378
X5.7439Y-4.8663
X5.7496Y-8.9433
X5.7579Y-9.1929
X5.7623Y-5.345
X5.7628Y-8.5186
X5.7657Y-7.7776
X5.7677Y-7.8248
X5.7704Y-8.5679
X5.7726Y-6.9537
X5.7764Y-2.9096
X5.7795Y-4.872
X5.7825Y-7.1703
X5.7825Y-8.2283
X5.7864Y-8.9134
X5.7996Y-8.6689
X5.7996Y-8.972
X5.8061Y-8.5394
X5.8194Y-6.9316
X5.8209Y-8.2736
X5.8219Y-5.0049
X5.8268Y-3.1348
X5.8268Y-8.1791
X5.8366Y-9.9459
X5.8496Y-8.674
X5.8496Y-8.9781
X5.8563Y-7.7313
X5.8637Y-6.9168
X5.8661Y-1.9833
X5.8711Y-5.0049
X5.8711Y-8.4941
X5.8711Y-9.9459
X5.876Y-7.8248
X5.8764Y-2.9081
X5.8809Y-9.247
X5.8809Y-9.3799
X5.8819Y-8.2717
X5.8858Y-9.5079
X5.8907Y-1.2598
X5.8907Y-9.6457
X5.8907Y-9.8425
X5.8996Y-8.6722
X5.9006Y-5.0344
X5.9042Y-8.8417
X5.9154Y-6.8996
X5.9203Y-9.2421
X5.9252Y-9.7884
X5.9272Y-8.3091
X5.9301Y-2.2736
X5.9301Y-3.1152
X5.935Y-2.2146
X5.935Y-8.1791
X5.935Y-8.2234
X5.935Y-9.8967
X5.9354Y-2.1748
X5.94Y-7.0817
X5.9496Y-8.5661
X5.9496Y-8.8437
X5.9496Y-8.9756
X5.9523Y-5.0517
X5.9547Y-9.2618
X5.967Y-6.8824
X5.9744Y-7.7313
X5.9764Y-2.9065
X5.9843Y-7.8248
X5.9892Y-9.4439
X5.9916Y-9.284
X5.999Y-2.0079
X5.9996Y-8.5673
X5.9996Y-8.8478
X5.9996Y-8.9728
X6.0015Y-5.0714
X6.0113Y-6.8578
X6.0187Y-9.3159
X6.0236Y-9.5128
X6.0285Y-3.1152
X6.0335Y-8.2579
X6.0353Y-2.572
X6.0433Y-8.1791
X6.0496Y-8.5685
X6.0496Y-8.847
X6.0496Y-8.974
X6.0556Y-6.8381
X6.0569Y-9.5484
X6.0581Y-5.0886
X6.0728Y-7.7313
X6.0728Y-9.498
X6.0753Y-9.3971
X6.0764Y-2.9049
X6.0827Y-6.8848
X6.0884Y-2.5238
X6.0925Y-4.9606
X6.0925Y-7.8248
X6.0996Y-8.5657
X6.0996Y-8.8069
X6.0996Y-8.9713
X6.1122Y-5.1083
X6.1122Y-6.8307
X6.127Y-3.1152
X6.1467Y-8.2825
X6.1467Y-9.626
X6.1467Y-9.6604
X6.1467Y-9.7441
X6.1467Y-9.813
X6.1516Y-8.1791
X6.1614Y-5.128
X6.1614Y-6.8061
X6.1713Y-9.3406
X6.1959Y-7.7313
X6.2008Y-7.8248
X6.2057Y-6.7864
X6.2057Y-7.2835
X6.2082Y-8.718
X6.2082Y-8.7771
X6.2131Y-5.1403
X6.2156Y-9.7343
X6.2254Y-3.1152
X6.2426Y-7.2613
X6.2451Y-2.7215
X6.2451Y-5.0689
X6.2475Y-9.594
X6.2496Y-9.0555
X6.25Y-3.0413
X6.2525Y-6.7692
X6.2549Y-9.7933
X6.2557Y-9.2364
X6.2557Y-9.3693
X6.2598Y-8.1791
X6.2616Y-9.5307
X6.2648Y-8.2825
X6.2717Y-7.2273
X6.2764Y-3.1134
X6.2771Y-5.155
X6.2943Y-6.752
X6.2996Y-9.0547
X6.3017Y-8.7131
X6.3066Y-9.22
X6.3091Y-7.8248
X6.3115Y-7.2121
X6.3263Y-5.1796
X6.3337Y-7.7313
X6.3366Y-1.0453
X6.3435Y-6.7372
X6.3496Y-8.6701
X6.3681Y-8.1791
X6.372Y-8.7165
X6.378Y-8.2825
X6.3829Y-7.2687
X6.3849Y-5.2293
X6.3853Y-6.7101
X6.3862Y-9.4307
X6.3872Y-9.6807
X6.388Y-9.6307
X6.3904Y-9.4807
X6.3976Y-9.7785
X6.3986Y-4.4134
X6.3996Y-8.6693
X6.4124Y-1.752
X6.4173Y-5.2067
X6.4173Y-7.1752
X6.4228Y-4.522
X6.4247Y-6.6905
X6.438Y-4.4134
X6.4469Y-7.2047
X6.4496Y-8.6685
X6.4531Y-6.8195
X6.4715Y-6.6732
X6.4843Y-3.8159
X6.4862Y-7.1506
X6.4961Y-7.6673
X6.4961Y-7.8248
X6.4996Y-8.6677
X6.5059Y-8.1201
X6.5059Y-8.3809
X6.5106Y-9.3949
X6.5106Y-9.4392
X6.5106Y-9.4835
X6.5124Y-6.7898
X6.5126Y-6.6553
X6.5157Y-1.752
X6.5187Y-3.8159
X6.5381Y-7.6843
X6.5496Y-8.6719
X6.5531Y-3.8159
X6.56Y-4.1142
X6.56Y-4.1486
X6.5699Y-6.6191
X6.5748Y-8.1791
X6.5846Y-7.687
X6.5876Y-3.8159
X6.5994Y-5.2854
X6.5996Y-8.6711
X6.6043Y-7.5935
X6.6043Y-8.2087
X6.6095Y-7.5342
X6.6142Y-0.6457
X6.6142Y-7.6329
X6.624Y-0.998
X6.6255Y-7.6856
X6.6258Y-9.5307
X6.6339Y-8.2382
X6.6388Y-7.564
X6.6412Y-3.1275
X6.6422Y-9.2603
X6.6496Y-8.6703
X6.6496Y-8.7165
X6.6516Y-6.6801
X6.6609Y-8.2653
X6.6634Y-6.5256
X6.6698Y-3.0989
X6.6732Y-1.752
X6.6757Y-5.3371
X6.6781Y-6.0581
X6.6781Y-6.2844
X6.6781Y-6.3189
X6.6831Y-2.5984
X6.688Y-8.2923
X6.69Y-6.6466
X6.6954Y-8.5655
X6.6978Y-1.9488
X6.7087Y-3.1191
X6.7101Y-3.0704
X6.7205Y-9.0787
X6.7258Y-6.0055
X6.7274Y-8.2923
X6.7274Y-8.5335
X6.7323Y-2.1014
X6.7323Y-8.7205
X6.7372Y-5.4577
X6.7569Y-5.9596
X6.7618Y-3.1644
X6.7667Y-3.0758
X6.7667Y-8.2923
X6.7707Y-0.6457
X6.7729Y-8.7168
X6.773Y-5.5055
X6.7741Y-3.5408
X6.7741Y-8.5064
X6.7766Y-5.7579
X6.7815Y-5.8563
X6.7831Y-5.8055
X6.7864Y-5.9055
X6.7896Y-5.7055
X6.7913Y-7.7067
X6.7985Y-6.5529
X6.8061Y-2.0571
X6.8063Y-5.5559
X6.811Y-8.5335
X6.8135Y-6.5133
X6.8204Y-3.1796
X6.8258Y-3.0758
X6.8381Y-3.595
X6.8381Y-6.4788
X6.8404Y-5.6055
X6.8406Y-9.2667
X6.8479Y-6.4395
X6.8504Y-5.6939
X6.8553Y-7.4656
X6.8553Y-9.0207
X6.8701Y-9.2372
X6.8711Y-3.749
X6.8763Y-8.6135
X6.8994Y-5.6646
X6.9089Y-8.598
X6.9094Y-9.2618
X6.9213Y-5.2589
X6.9226Y-5.3165
X6.9281Y-0.6457
X6.9311Y-7.2569
X6.9376Y-4.7504
X6.939Y-5.4232
X6.9392Y-5.5559
X6.9414Y-9.2347
X6.9518Y-5.2874
X6.9551Y-5.5055
X6.9596Y-5.3878
X6.9685Y-4.5374
X6.9695Y-5.4665
X6.9714Y-6.1536
X6.9732Y-9.3063
X6.9732Y-9.3506
X6.9732Y-9.3949
X6.9734Y-6.4075
X6.9759Y-5.6078
X6.9882Y-6.3533
X6.9931Y-9.2372
X6.9995Y-5.1856
X7.003Y-1.5748
X7.0128Y-2.19
X7.0226Y-6.122
X7.0236Y-5.3583
X7.0339Y-5.1856
X7.0411Y-2.265
X7.0423Y-1.5748
X7.0423Y-1.752
X7.0423Y-1.9636
X7.0472Y-9.0502
X7.0472Y-9.2372
X7.0522Y-6.6191
X7.0669Y-8.7598
X7.0669Y-9.1142
X7.0719Y-5.7333
X7.0817Y-1.5748
X7.0856Y-0.6457
X7.0915Y-5.7972
X7.0984Y-8.6201
X7.0984Y-9.2402
X7.1038Y-6.5674
X7.1071Y-6.1327
X7.1161Y-4.4134
X7.1161Y-5.8465
X7.1161Y-8.7746
X7.1368Y-5.3238
X7.1368Y-5.4469
X7.1368Y-5.565
X7.1407Y-6.5305
X7.1416Y-6.0983
X7.1476Y-8.999
X7.1476Y-9.1073
X7.1654Y-1.8602
X7.1654Y-5.8465
X7.1677Y-2.1483
X7.1777Y-2.3745
X7.185Y-5.9055
X7.1875Y-6.5625
X7.1876Y-6.0555
X7.1884Y-6.0055
X7.1894Y-6.2555
X7.19Y-8.9961
X7.19Y-9.1093
X7.197Y-2.2469
X7.1998Y-5.0148
X7.1998Y-5.7382
X7.2047Y-2.4902
X7.2063Y-4.0388
X7.2146Y-7.8642
X7.2269Y-6.5379
X7.2318Y-6.8381
X7.2431Y-0.6457
X7.2441Y-1.5748
X7.2441Y-3.4892
X7.2539Y-4.001
X7.2589Y-9.7982
X7.2589Y-9.836
X7.2707Y-9.3189
X7.2861Y-6.7493
X7.2884Y-5.3642
X7.2933Y-4.2126
X7.2943Y-6.1555
X7.2951Y-6.1055
X7.2974Y-5.9555
X7.2982Y-5.5512
X7.2982Y-5.6644
X7.3001Y-5.4361
X7.3045Y-5.5055
X7.3051Y-5.0866
X7.3116Y-5.6165
X7.3188Y-6.2196
X7.3204Y-4.0281
X7.3204Y-9.4267
X7.3228Y-2.1309
X7.3278Y-9.0157
X7.3376Y-5.1722
X7.3435Y-3.4882
X7.3441Y-2.2425
X7.3441Y-2.277
X7.3524Y-6.1565
X7.3548Y-2.0989
X7.3573Y-6.6732
X7.3622Y-9.0157
X7.372Y-1.8455
X7.3745Y-6.1196
X7.377Y-5.1526
X7.3868Y-6.565
X7.3901Y-4.4603
X7.3909Y-5.9555
X7.4006Y-0.6457
X7.4065Y-2.2047
X7.4065Y-6.4862
X7.4065Y-9.7687
X7.4067Y-9.6701
X7.4098Y-9.4701
X7.4163Y-6.5945
X7.4163Y-6.6732
X7.4163Y-9.3012
X7.4181Y-5.2165
X7.4181Y-5.4165
X7.4224Y-5.3165
X7.436Y-2.1703
X7.4402Y-6.5165
X7.4409Y-6.8553
X7.4409Y-9.2274
X7.4409Y-9.3258
X7.4434Y-8.7229
X7.4459Y-1.875
X7.4532Y-6.7692
X7.4534Y-4.4265
X7.4656Y-1.6979
X7.4656Y-9.0748
X7.4656Y-9.1289
X7.4705Y-5.9596
X7.4705Y-8.3907
X7.4705Y-9.2569
X7.4705Y-9.8573
X7.4705Y-9.8917
X7.4774Y-4.8701
X7.4774Y-5.0866
X7.4803Y-1.2402
X7.487Y-6.1055
X7.4882Y-3.8159
X7.4941Y-1.8982
X7.4951Y-2.249
X7.5049Y-6.1565
X7.5049Y-7.2146
X7.5049Y-9.2323
X7.5226Y-3.8159
X7.5246Y-9.4193
X7.5394Y-9.4636
X7.5443Y-2.2047
X7.548Y-7.9687
X7.5566Y-5.6914
X7.5581Y-0.6457
X7.5591Y-4.0354
X7.5591Y-6.9439
X7.561Y-5.0866
X7.564Y-5.9555
X7.565Y-5.5945
X7.565Y-5.6289
X7.565Y-6.1555
X7.5657Y-6.1055
X7.5738Y-1.8799
X7.5763Y-9.4808
X7.5787Y-1.9882
X7.5787Y-5.8514
X7.5837Y-2.5295
X7.5837Y-9.439
X7.5857Y-2.3405
X7.5886Y-4.8278
X7.5984Y-7.0472
X7.5984Y-8.8386
X7.6009Y-5.8292
X7.6043Y-9.3199
X7.6043Y-9.3553
X7.623Y-8.9222
X7.623Y-9.0748
X7.6255Y-6.4592
X7.6255Y-6.5822
X7.6255Y-6.6806
X7.6255Y-6.7692
X7.6255Y-6.8479
X7.6256Y-5.3665
X7.628Y-2.7362
X7.628Y-5.2953
X7.6378Y-1.4764
X7.6427Y-9.4587
X7.6447Y-5.0167
X7.6585Y-5.4665
X7.6592Y-5.5397
X7.6614Y-5.8602
X7.6614Y-4.7992
X7.6624Y-7.9626
X7.6654Y-7.748
X7.6673Y-5.6299
X7.6696Y-6.0607
X7.6722Y-1.4419
X7.6722Y-5.999
X7.6733Y-6.2145
X7.6821Y-6.5157
X7.687Y-2.4852
X7.69Y-1.0453
X7.6919Y-4.8327
X7.6993Y-9.2151
X7.7067Y-2.9528
X7.7116Y-1.4419
X7.7116Y-5.7431
X7.7116Y-6.2402
X7.7156Y-0.6457
X7.719Y-9.407
X7.7283Y-1.0453
X7.7411Y-2.9528
X7.7411Y-4.0059
X7.7411Y-6.1713
X7.751Y-5.7431
X7.751Y-6.2205
X7.7579Y-9.2244
X7.7608Y-6.0285
X7.7623Y-4.846
X7.764Y-8.8748
X7.7687Y-1.8917
X7.7776Y-4.8848
X7.7795Y-8.8248
X7.7805Y-5.9301
X7.7805Y-8.7697
X7.7864Y-5.9833
X7.7874Y-5.0866
X7.7889Y-5.2601
X7.7894Y-4.1496
X7.7904Y-8.9961
X7.7906Y-7.6228
X7.7963Y-7.0463
X7.8031Y-1.8917
X7.8051Y-2.3573
X7.8051Y-3.627
X7.8051Y-8.3219
X7.8063Y-3.0844
X7.8063Y-3.1238
X7.8063Y-3.5913
X7.81Y-9.247
X7.813Y-0.998
X7.815Y-6.0433
X7.8248Y-4.7982
X7.8277Y-9.2942
X7.8287Y-4.1496
X7.8307Y-7.0463
X7.8396Y-2.3573
X7.8396Y-8.2923
X7.842Y-5.4011
X7.8494Y-2.0079
X7.8593Y-6.3829
X7.8642Y-2.5295
X7.8642Y-5.4626
X7.8711Y-7.7047
X7.8957Y-9.3287
X7.8976Y-4.8041
X7.8986Y-5.5167
X7.9016Y-4.9094
X7.9035Y-6.9439
X7.9065Y-7.7047
X7.9077Y-9.4201
X7.9134Y-5.935
X7.9134Y-5.9695
X7.9183Y-1.8209
X7.9203Y-3.748
X7.9232Y-9.7195
X7.9256Y-5.2165
X7.9281Y-4.0748
X7.9301Y-9.3287
X7.938Y-5.5906
X7.9405Y-4.8253
X7.9421Y-9.4201
X7.9453Y-8.3539
X7.9577Y-3.4301
X7.9616Y-9.1102
X7.9626Y-0.6496
X7.9626Y-1.0679
X7.9626Y-9.7195
X7.9754Y-4.9134
X7.9798Y-7.3548
X7.9872Y-9.1358
X7.9872Y-9.2815
X8.0118Y-4.8031
X8.0118Y-5.9055
X8.0161Y-6.2555
X8.0167Y-6.2057
X8.0192Y-5.0025
X8.0217Y-6.5846
X8.0217Y-6.6781
X8.0217Y-6.8504
X8.0217Y-6.9439
X8.0217Y-7.3967
X8.0273Y-8.9363
X8.0364Y-1.6732
X8.0389Y-6.4592
X8.0561Y-4.8179
X8.0561Y-6.9439
X8.0591Y-3.8159
X8.061Y-3.5974
X8.0625Y-8.7248
X8.0635Y-6.4345
X8.0782Y-6.8775
X8.0807Y-2.0079
X8.0807Y-9.2421
X8.0832Y-5.6964
X8.0858Y-5.2213
X8.089Y-8.9748
X8.0925Y-9.3287
X8.0961Y-8.2486
X8.0961Y-8.2819
X8.0961Y-8.7248
X8.0984Y-1.8917
X8.1004Y-0.6496
X8.1102Y-4.8376
X8.1122Y-7.7047
X8.1201Y-2.2933
X8.1211Y-6.1555
X8.1219Y-6.1055
X8.125Y-5.9555
X8.1276Y-6.0555
X8.128Y-9.3287
X8.1283Y-6.0055
X8.1373Y-6.7889
X8.1378Y-1.8917
X8.1398Y-9.7195
X8.1467Y-7.7047
X8.1496Y-2.9528
X8.1521Y-4.9975
X8.1545Y-4.001
X8.1585Y-4.8829
X8.1587Y-9.4201
X8.1594Y-3.5974
X8.1619Y-6.7101
X8.162Y-8.0437
X8.1742Y-9.7195
X8.185Y-6.1555
X8.1865Y-6.6117
X8.189Y-2.2933
X8.189Y-2.4606
X8.189Y-2.9528
X8.1914Y-5.6914
X8.1931Y-9.4201
X8.1939Y-8.3415
X8.1939Y-9.2815
X8.1964Y-8.0437
X8.2013Y-4.9975
X8.2087Y-4.8376
X8.2104Y-5.4165
X8.212Y-5.3165
X8.2122Y-5.2165
X8.2122Y-5.6165
X8.2134Y-6.1055
X8.2138Y-5.5165
X8.2179Y-5.665
X8.2311Y-5.9372
X8.2333Y-6.4665
X8.2333Y-6.5994
X8.2333Y-6.7028
X8.2333Y-6.7815
X8.2333Y-6.8652
X8.2333Y-6.9439
X8.2382Y-0.6496
X8.2456Y-7.9946
X8.2456Y-8.0881
X8.2554Y-8.3932
X8.2579Y-3.5974
X8.2579Y-8.7303
X8.2579Y-9.0699
X8.2603Y-7.3253
X8.2603Y-7.7092
X8.2603Y-9.1905
X8.262Y-4.9057
X8.2638Y-9.374
X8.2638Y-9.4082
X8.2677Y-2.4262
X8.279Y-6.5487
X8.2825Y-8.9272
X8.2915Y-5.9236
X8.2997Y-8.8853
X8.3071Y-4.8376
X8.3095Y-6.1048
X8.3169Y-8.7795
X8.3179Y-6.6427
X8.3292Y-6.1688
X8.3307Y-5.4665
X8.3317Y-5.5758
X8.3337Y-6.7402
X8.3346Y-6.8179
X8.344Y-5.3666
X8.3563Y-2.2933
X8.3563Y-3.5974
X8.3612Y-1.1713
X8.3637Y-1.4001
X8.3669Y-5.2665
X8.3711Y-1.7175
X8.3711Y-5.9892
X8.376Y-0.6496
X8.376Y-3.3514
X8.3868Y-6.1555
X8.3876Y-6.1055
X8.3907Y-7.8642
X8.3967Y-7.8238
X8.4055Y-4.8376
X8.4104Y-7.7559
X8.4252Y-5.6644
X8.4301Y-6.9636
X8.4301Y-7.7904
X8.435Y-1.8209
X8.4429Y-6.3898
X8.4449Y-4.3356
X8.4497Y-7.6279
X8.4547Y-3.5974
X8.4596Y-5.8366
X8.4646Y-2.0768
X8.4744Y-7.4606
X8.4843Y-5.1526
X8.4961Y-6.2638
X8.4988Y-6.1957
X8.5039Y-2.2933
X8.5039Y-4.8376
X8.516Y-6.0804
X8.5182Y-5.8903
X8.5187Y-5.1526
X8.5212Y-7.6206
X8.5236Y-0.6496
X8.5238Y-6.0382
X8.5363Y-5.2186
X8.5428Y-5.8656
X8.5482Y-2.1063
X8.5482Y-6.2352
X8.5531Y-2.9528
X8.5531Y-3.5974
X8.563Y-1.7175
X8.5655Y-7.7632
X8.5655Y-7.9797
X8.5655Y-8.0634
X8.5655Y-8.1864
X8.5728Y-2.2933
X8.5753Y-3.2849
X8.5756Y-5.6665
X8.5772Y-5.5665
X8.5817Y-5.4764
X8.5876Y-3.5285
X8.6024Y-4.8376
X8.6026Y-6.2055
X8.622Y-6.1713
X8.6417Y-2.2638
X8.6417Y-3.5394
X8.6417Y-6.1368
X8.6516Y-3.5974
X8.6552Y-6.0912
X8.6614Y-0.6496
X8.6786Y-3.5212
X8.6786Y-4.8351
X8.6786Y-5.7603
X8.6909Y-6.0687
X8.7057Y-4.8081
X8.7106Y-2.9774
X8.7167Y-5.5451
X8.7205Y-2.1703
X8.7205Y-5.9301
X8.7229Y-6.0015
X8.7323Y-2.2126
X8.7328Y-4.781
X8.7352Y-4.3356
X8.7352Y-5.4429
X8.7386Y-5.3165
X8.75Y-3.5974
X8.75Y-5.3839
X8.7648Y-4.2421
X8.7795Y-5.0443
X8.7805Y-5.0089
X8.7844Y-1.7175
X8.7992Y-0.6496
X8.7992Y-2.3081
X8.8041Y-5.9203
X8.8189Y-2.1506
X8.8189Y-4.3356
X8.8583Y-2.751
X8.8681Y-3.2677
X8.8681Y-3.3071
X8.8681Y-3.5531
X8.8681Y-3.622
X8.876Y-1.8228
X8.878Y-3.0512
X8.8878Y-5.1526
X8.9173Y-2.1506
X8.9321Y-3.5482
X8.9409Y-1.5315
X8.9415Y-2.0329
X8.9419Y-4.3356
X8.9429Y-4.9567
X8.9469Y-0.6496
X8.9567Y-5.4478
X8.9715Y-1.7175
X8.9764Y-5.5463
X9.0138Y-3.7274
X9.0231Y-5.5635
X9.0502Y-1.5059
X9.0502Y-1.7175
X9.065Y-3.0512
X9.0846Y-0.6496
X9.0896Y-1.4911
X9.0969Y-1.6265
X9.1093Y-5.2313
X9.1142Y-4.3012
X9.1166Y-5.5192
X9.1388Y-5.315
X9.1486Y-1.4813
X9.1516Y-3.7274
X9.1585Y-1.0531
X9.1585Y-1.1516
X9.1806Y-3.659
X9.1978Y-4.3012
X9.2077Y-3.2205
X9.2224Y-0.6496
X9.2224Y-1.0413
X9.2667Y-3.2185
X9.2667Y-5.1526
X9.2766Y-1.3091
X9.2766Y-4.3238
X9.2815Y-1.7175
X9.2913Y-3.0512
X9.3012Y-4.9852
X9.311Y-1.5404
X9.3376Y-2.7392
X9.3406Y-3.0512
X9.3504Y-4.3238
X9.3504Y-5.3248
X9.3602Y-0.6496
X9.3775Y-1.6265
X9.3878Y-3.7274
X9.3898Y-4.252
X9.3947Y-1.5748
X9.4085Y-4.7648
X9.4193Y-4.4537
X9.4272Y-3.7274
X9.4311Y-2.7392
X9.4636Y-5.3248
X9.4742Y-1.4707
X9.4783Y-4.1388
X9.4882Y-2.2047
X9.4931Y-1.5846
X9.4956Y-1.6265
X9.498Y-0.6496
X9.5128Y-4.1388
X9.5202Y-5.3912
X9.5295Y-2.7392
X9.5768Y-1.1565
X9.5792Y-5.4158
X9.5858Y-2.1858
X9.6152Y-4.7648
X9.6152Y-4.8386
X9.623Y-2.7392
X9.6358Y-0.6496
X9.6358Y-4.439
X9.6358Y-5.3396
X9.6457Y-5.3839
X9.6654Y-1.5108
X9.6654Y-5.31
X9.685Y-5.2215
X9.69Y-5.1624
X9.69Y-5.2756
X9.7195Y-5.1969
X9.7411Y-2.7392
X9.7835Y-0.6496
X9.7835Y-3.5482
X9.7835Y-3.5974
X9.7835Y-4.4587
X9.7884Y-1.0226
X9.8031Y-4.4931
X9.8464Y-4.4921
X9.851Y-4.7701
X9.8524Y-4.8327
X9.8953Y-4.7701
X9.9213Y-0.6496
X9.9459Y-3.2677
X9.9459Y-3.3071
X9.9459Y-3.814
X9.9459Y-4.1388
X9.9459Y-4.7687
X9.9459Y-4.8327
X9.9459Y-4.8327
X9.9459Y-4.8327
X9.9803Y-4.1388
X9.9852Y-3.814
X9.9858Y-2.1894
X10.0295Y-5.2707
X10.0541Y-1.5108
X10.0591Y-0.6496
X10.0669Y-1.1516
X10.0935Y-5.3346
X10.0945Y-5.8799
X10.1181Y-1.1516
X10.1575Y-1.5748
X10.1772Y-1.1516
X10.1969Y-0.6496
X10.1969Y-2.9528
X10.1988Y-2.6398
X10.2116Y-1.0285
X10.2348Y-1.0939
X10.2461Y-3.3563
X10.3297Y-3.2382
X10.3346Y-0.6496
X10.3346Y-2.2982
X10.3396Y-1.0335
X10.3396Y-1.501
X10.3937Y-0.9862
X10.3953Y-4.1502
X10.4085Y-3.1398
X10.4208Y-3.408
X10.4331Y-3.1053
X10.4405Y-4.1658
X10.4774Y-1.7077
X10.4798Y-4.1855
X10.502Y-3.7402
X10.5167Y-1.7077
X10.5217Y-1.7766
X10.5266Y-4.2028
X10.5266Y-4.2815
X10.5512Y-3.002
X10.5512Y-4.0699
X10.5551Y-1.7087
X10.5659Y-4.2224
X10.5807Y-4.5177
X10.5807Y-5.1378
X10.5856Y-4.0699
X10.5955Y-3.622
X10.6102Y-0.6447
X10.6102Y-1.0335
X10.6225Y-3.6491
X10.6398Y-4.5177
X10.6398Y-4.6205
X10.6521Y-4.2594
X10.6545Y-0.8366
X10.6693Y-2.1181
X10.6693Y-2.1575
X10.6693Y-2.3573
X10.6762Y-1.1437
X10.6791Y-3.9173
X10.6791Y-4.0059
X10.6939Y-5.1378
X10.6939Y-5.6791
X10.6964Y-4.2741
X10.7037Y-2.3573
X10.7087Y-4.6309
X10.7087Y-4.749
X10.7087Y-4.8819
X10.7107Y-5.8641
X10.7283Y-4.0699
X10.7357Y-4.2938
X10.75Y-1.0118
X10.753Y-2.7854
X10.7628Y-4.0699
X10.7628Y-4.8376
X10.7657Y-5.002
X10.7677Y-4.6309
X10.7677Y-5.0837
X10.7677Y-5.123
X10.7972Y-5.6791
X10.813Y-1.2156
X10.8268Y-4.7884
X10.8317Y-4.7146
X10.8366Y-5.5413
X10.8366Y-5.5758
X10.8366Y-5.8169
X10.8366Y-5.8514
X10.8583Y-1.0118
X10.8612Y-4.8376
X10.876Y-0.6447
X10.8839Y-0.7894
X10.8907Y-0.7087
X10.9104Y-4.9803
X10.9154Y-5.1624
X10.9203Y-4.8031
X10.9203Y-5.374
X10.9203Y-5.4626
X10.9227Y-3.5408
X10.9252Y-4.8917
X10.9252Y-5.2313
X10.9424Y-3.6491
X10.9596Y-4.1486
X10.9596Y-4.1831
X10.9665Y-1.3209
X10.9665Y-1.3957
X10.9818Y-3.6491
X10.9843Y-0.8711
X10.999Y-0.6447
X11.0354Y-0.874
X11.0394Y-1.9281
X11.0394Y-1.9675
X11.0876Y-4.7146
X11.0876Y-5.0689
X11.0876Y-5.4626
X11.0925Y-4.813
X11.1073Y-0.6447
X11.1073Y-0.7874
X11.1368Y-1.9488
X11.1516Y-2.1555
X11.1516Y-2.1949
X11.1909Y-3.7352
X11.2254Y-0.6447
X11.2443Y-5.0598
X11.251Y-4.9911
X11.2598Y-5.748
X11.2795Y-2.7411
X11.2844Y-0.7087
X11.2943Y-0.6447
X11.314Y-5.9154
X11.315Y-2.9685
X11.3329Y-2.0415
X11.3337Y-3.9321
X11.3437Y-3.5037
X11.3583Y-2.938
X11.3606Y-5.1598
X11.3681Y-2.815
X11.3681Y-2.8937
X11.3701Y-5.6821
X11.3937Y-1.6437
X11.3937Y-2.0413
X11.3937Y-3.3701
X11.4045Y-5.6821
X11.4134Y-4.9911
X11.4279Y-2.6169
X11.4437Y-3.1022
X11.4465Y-3.9965
X11.4535Y-5.2098
X11.4551Y-5.1098
X11.4559Y-5.0598
X11.4882Y-1.6142
X11.4937Y-2.0417
X11.4937Y-2.2957
X11.5079Y-3.2707
X11.5112Y-3.9022
X11.5118Y-2.6192
X11.5269Y-3.3661
X11.5404Y-0.6447
X11.5404Y-0.9498
X11.5404Y-4.813
X11.5437Y-2.2949
X11.5437Y-3.102
X11.5472Y-3.2707
X11.5876Y-0.9035
X11.5896Y-1.1024
X11.5906Y-1.5984
X11.5937Y-2.2941
X11.5945Y-6.1073
X11.6024Y-2.6181
X11.6043Y-5.3593
X11.6043Y-5.4183
X11.6107Y-4.0635
X11.624Y-4.7146
X11.624Y-0.9035
X11.6437Y-2.2982
X11.6437Y-2.6161
X11.6437Y-3.3268
X11.6452Y-4.0635
X11.6457Y-2.4567
X11.6457Y-6.1988
X11.687Y-2.9587
X11.6929Y-6.1073
X11.6937Y-2.2974
X11.7126Y-3.5384
X11.7274Y-4.247
X11.747Y-5.9892
X11.752Y-2.4557
X11.7569Y-3.5531
X11.7569Y-4.2766
X11.7667Y-5.0098
X11.7677Y-5.2598
X11.7742Y-5.1598
X11.7825Y-1.6191
X11.7913Y-4.685
X11.8012Y-3.1496
X11.8012Y-3.189
X11.8159Y-5.3888
X11.8161Y-5.3098
X11.8219Y-1.6191
X11.8307Y-4.6532
X11.8356Y-1.3386
X11.8623Y-1.868
X11.8701Y-1.501
X11.875Y-1.314
X11.8799Y-3.3219
X11.8869Y-1.8926
X11.8917Y-0.9508
X11.9291Y-2.0226
X11.9528Y-1.0079
X11.9528Y-1.502
X11.9557Y-5.6821
X11.9562Y-2.0497
X11.9902Y-4.7077
X11.9902Y-4.8701
X11.9902Y-5.0226
X11.9902Y-5.2047
X11.9902Y-5.3474
X11.9902Y-5.6821
X11.998Y-0.8415
X12.1014Y-5.3494
X12.1309Y-4.6457
X12.1309Y-4.7343
X12.1309Y-5.0886
X12.1309Y-5.3888
X12.1407Y-2.4557
X12.1407Y-5.2411
X12.1409Y-5.3098
X12.19Y-5.7953
X12.1909Y-4.3396
X12.2254Y-4.3396
X12.249Y-4.4734
X12.2916Y-5.3462
X12.2982Y-2.7067
X12.3031Y-5.5709
X12.313Y-5.2411
X12.3228Y-0.8415
X12.3524Y-4.4488
X12.3967Y-4.4291
X12.4163Y-5.5413
X12.4163Y-5.5758
X12.4213Y-1.0138
X12.4213Y-1.2057
X12.4803Y-4.749
X12.5118Y-4.4065
X12.5118Y-4.4488
X12.5148Y-0.8415
X12.5197Y-1.4715
X12.5236Y-2.4902
X12.5591Y-4.4173
X12.564Y-2.4902
X12.5689Y-4.5177
X12.5689Y-6.1073
X12.5984Y-4.4173
X12.6083Y-0.8415
X12.6181Y-1.0138
X12.6181Y-1.2057
X12.6447Y-4.3396
X12.6841Y-4.3396
X12.7165Y-0.8415
X12.7608Y-1.2746
X12.8248Y-0.8415
X12.8396Y-1.4321
X12.8445Y-1.501
X13.1944Y-4.4975
X13.1998Y-1.4705
X13.1998Y-1.5049
X13.1998Y-1.7608
X13.1998Y-1.7953
X13.1998Y-2.0118
X13.1998Y-2.0512
X13.1998Y-2.2923
X13.1998Y-2.3366
X13.1998Y-2.7254
X13.1998Y-2.9469
X13.1998Y-3.2372
X13.1998Y-3.5522
X13.1998Y-3.8819
X13.1998Y-4.1526
X13.4473Y-3.0684
X13.4793Y-1.4567
X13.4941Y-2.997
X13.4941Y-3.0512
X13.5118Y-1.4341
X13.5261Y-2.9601
X13.5802Y-1.3164
X13.623Y-3.6063
X13.623Y-4.1132
X13.623Y-4.5118
X13.6368Y-2.6083
X13.6742Y-0.7894
X13.6909Y-1.5994
X13.7323Y-2.5276
X13.7697Y-1.186
X13.7795Y-1.5994
X13.8238Y-2.499
X13.8337Y-1.2549
X13.8681Y-1.5994
X13.9124Y-2.5522
X13.9222Y-1.2303
X13.9567Y-1.5994
X13.9764Y-1.2844
X14.001Y-2.4508
X14.0059Y-0.8415
X14.0453Y-1.5994
X14.0945Y-2.2392
X14.1142Y-0.8415
X14.1142Y-1.2352
X14.1535Y-1.5994
X14.1954Y-2.3597
X14.2028Y-1.2303
X14.2421Y-1.5994
X14.25Y-0.7894
X14.2825Y-2.1201
X14.3307Y-1.5994
X14.3381Y-2.6107
X14.3455Y-3.627
X14.3455Y-4.1142
X14.3455Y-4.5226
X14.3799Y-2.1112
T2
X7.8839Y-7.8504
X7.8839Y-7.8976
T3
X0.6299Y-3.5433
X0.6645Y-3.4598
X0.6645Y-3.6268
X0.748Y-3.4252
X0.748Y-3.6614
X0.8315Y-3.4598
X0.8315Y-3.6268
X0.8661Y-3.5433
X13.3031Y-4.7244
X13.3377Y-4.6409
X13.3377Y-4.8079
X13.4213Y-4.6063
X13.4213Y-4.8425
X13.5048Y-4.6409
X13.5048Y-4.8079
X13.5394Y-4.7244
X13.3031Y-0.9843
X13.3377Y-0.9007
X13.3377Y-1.0678
X13.4213Y-0.8661
X13.4213Y-1.1024
X13.5048Y-0.9007
X13.5048Y-1.0678
X13.5394Y-0.9843
X0.6299Y-8.3858
X0.6645Y-8.3023
X0.6645Y-8.4693
X0.748Y-8.2677
X0.748Y-8.5039
X0.8315Y-8.3023
X0.8315Y-8.4693
X0.8661Y-8.3858
X6.8898Y-9.685
X6.9244Y-9.6015
X6.9244Y-9.7686
X7.0079Y-9.5669
X7.0079Y-9.8031
X7.0914Y-9.6015
X7.0914Y-9.7686
X7.126Y-9.685
X0.1969Y-9.685
X0.2314Y-9.6015
X0.2314Y-9.7686
X0.315Y-9.5669
X0.315Y-9.8031
X0.3985Y-9.6015
X0.3985Y-9.7686
X0.4331Y-9.685
T4
X2.4212Y-3.7598
X2.6133Y-3.7598
T5
X0.545Y-7.97
X0.55Y-7.87
X0.5512Y-4.065
X0.5512Y-4.1634
X0.5512Y-4.5669
X0.5512Y-4.6654
X0.5512Y-4.7638
X0.5512Y-4.8622
X0.5512Y-4.9606
X0.5512Y-5.1673
X0.5512Y-5.2657
X0.5512Y-5.3642
X0.5512Y-5.4626
X0.5512Y-5.5709
X0.5512Y-5.7677
X0.5512Y-5.8661
X0.5512Y-5.9646
X0.5512Y-6.063
X0.5512Y-6.1713
X0.5512Y-6.3681
X0.5512Y-6.4665
X0.5512Y-6.565
X0.5512Y-6.6634
X0.5512Y-6.7618
X0.5512Y-6.9685
X0.5512Y-7.0669
X0.5512Y-7.1654
X0.5512Y-7.2638
X0.5512Y-7.3622
X0.5512Y-7.5689
X0.5512Y-7.6673
X0.5512Y-7.7657
X0.6299Y-9.5571
X6.1811Y-2.2736
X6.1811Y-2.5736
X2.4409Y-5.9528
X2.4409Y-6.0528
X2.4409Y-6.1528
X2.4409Y-6.2528
X2.4409Y-6.3528
X2.4409Y-6.4528
X2.4409Y-6.5528
X2.4409Y-6.6528
X2.4409Y-6.7528
X2.4409Y-6.8528
X2.4409Y-6.9528
X2.4409Y-7.0528
X2.4409Y-7.1528
X2.4409Y-7.2528
X2.4409Y-7.3528
X2.4409Y-7.4528
X2.4409Y-7.5528
X2.4409Y-7.6528
X2.4409Y-7.7528
X2.4409Y-7.8528
X2.4409Y-7.9528
X3.0409Y-5.9528
X3.0409Y-6.0528
X3.0409Y-6.1528
X3.0409Y-6.2528
X3.0409Y-6.3528
X3.0409Y-6.4528
X3.0409Y-6.5528
X3.0409Y-6.6528
X3.0409Y-6.7528
X3.0409Y-6.8528
X3.0409Y-6.9528
X3.0409Y-7.0528
X3.0409Y-7.1528
X3.0409Y-7.2528
X3.0409Y-7.3528
X3.0409Y-7.4528
X3.0409Y-7.5528
X3.0409Y-7.6528
X3.0409Y-7.7528
X3.0409Y-7.8528
X3.0409Y-7.9528
X4.4882Y-8.6614
X4.4882Y-8.7614
X4.4882Y-8.8614
X4.4882Y-8.9614
X4.4882Y-9.0614
X4.4882Y-9.1614
X4.4882Y-9.2614
X4.4882Y-9.3614
X4.4882Y-9.4614
X4.4882Y-9.5614
X4.7882Y-8.6614
X4.7882Y-8.7614
X4.7882Y-8.8614
X4.7882Y-8.9614
X4.7882Y-9.0614
X4.7882Y-9.1614
X4.7882Y-9.2614
X4.7882Y-9.3614
X4.7882Y-9.4614
X4.7882Y-9.5614
X5.0394Y-8.6614
X5.0394Y-8.7614
X5.0394Y-8.8614
X5.0394Y-8.9614
X5.0394Y-9.0614
X5.0394Y-9.1614
X5.0394Y-9.2614
X5.0394Y-9.3614
X5.0394Y-9.4614
X5.0394Y-9.5614
X5.3394Y-8.6614
X5.3394Y-8.7614
X5.3394Y-8.8614
X5.3394Y-8.9614
X5.3394Y-9.0614
X5.3394Y-9.1614
X5.3394Y-9.2614
X5.3394Y-9.3614
X5.3394Y-9.4614
X5.3394Y-9.5614
X2.6232Y-4.1244
X2.6232Y-4.7244
X2.9232Y-4.1244
X2.9232Y-4.7244
X1.1811Y-8.6614
X1.1811Y-8.7614
X1.1811Y-8.8614
X1.1811Y-8.9614
X1.1811Y-9.0614
X1.1811Y-9.1614
X1.1811Y-9.2614
X1.1811Y-9.3614
X1.1811Y-9.4614
X1.1811Y-9.5614
X1.4811Y-8.6614
X1.4811Y-8.7614
X1.4811Y-8.8614
X1.4811Y-8.9614
X1.4811Y-9.0614
X1.4811Y-9.1614
X1.4811Y-9.2614
X1.4811Y-9.3614
X1.4811Y-9.4614
X1.4811Y-9.5614
X0.3642Y-2.4709
X0.3642Y-3.0709
X0.4642Y-2.4709
X0.4642Y-3.0709
X0.5642Y-2.4709
X0.5642Y-3.0709
X0.6642Y-2.4709
X0.6642Y-3.0709
X0.7642Y-2.4709
X0.7642Y-3.0709
X0.8642Y-2.4709
X0.8642Y-3.0709
X0.9642Y-2.4709
X0.9642Y-3.0709
X1.0642Y-2.4709
X1.0642Y-3.0709
X1.1642Y-2.4709
X1.1642Y-3.0709
X1.2642Y-2.4709
X1.2642Y-3.0709
X1.3642Y-2.4709
X1.3642Y-3.0709
X1.4642Y-2.4709
X1.4642Y-3.0709
X1.5642Y-2.4709
X1.5642Y-3.0709
X1.6642Y-2.4709
X1.6642Y-3.0709
X1.7642Y-2.4709
X1.7642Y-3.0709
X1.8642Y-2.4709
X1.8642Y-3.0709
X1.9642Y-2.4709
X1.9642Y-3.0709
X2.0642Y-2.4709
X2.0642Y-3.0709
X2.1642Y-2.4709
X2.1642Y-3.0709
X2.2642Y-2.4709
X2.2642Y-3.0709
X2.3642Y-2.4709
X2.3642Y-3.0709
X2.4642Y-2.4709
X2.4642Y-3.0709
X2.5642Y-2.4709
X2.5642Y-3.0709
X2.6642Y-2.4709
X2.6642Y-3.0709
X0.8661Y-4.8528
X0.8661Y-4.9528
X0.8661Y-5.0528
X0.8661Y-5.1528
X0.8661Y-5.2528
X0.8661Y-5.3528
X0.8661Y-5.4528
X0.8661Y-5.5528
X0.8661Y-5.6528
X0.8661Y-5.7528
X0.8661Y-5.8528
X0.8661Y-5.9528
X0.8661Y-6.0528
X0.8661Y-6.1528
X0.8661Y-6.2528
X0.8661Y-6.3528
X0.8661Y-6.4528
X0.8661Y-6.5528
X0.8661Y-6.6528
X0.8661Y-6.7528
X0.8661Y-6.8528
X0.8661Y-6.9528
X0.8661Y-7.0528
X0.8661Y-7.1528
X0.8661Y-7.2528
X0.8661Y-7.3528
X0.8661Y-7.4528
X0.8661Y-7.5528
X0.8661Y-7.6528
X0.8661Y-7.7528
X0.8661Y-7.8528
X0.8661Y-7.9528
X1.7661Y-4.8528
X1.7661Y-4.9528
X1.7661Y-5.0528
X1.7661Y-5.1528
X1.7661Y-5.2528
X1.7661Y-5.3528
X1.7661Y-5.4528
X1.7661Y-5.5528
X1.7661Y-5.6528
X1.7661Y-5.7528
X1.7661Y-5.8528
X1.7661Y-5.9528
X1.7661Y-6.0528
X1.7661Y-6.1528
X1.7661Y-6.2528
X1.7661Y-6.3528
X1.7661Y-6.4528
X1.7661Y-6.5528
X1.7661Y-6.6528
X1.7661Y-6.7528
X1.7661Y-6.8528
X1.7661Y-6.9528
X1.7661Y-7.0528
X1.7661Y-7.1528
X1.7661Y-7.2528
X1.7661Y-7.3528
X1.7661Y-7.4528
X1.7661Y-7.5528
X1.7661Y-7.6528
X1.7661Y-7.7528
X1.7661Y-7.8528
X1.7661Y-7.9528
X8.3858Y-1.9291
X8.3858Y-2.5291
X8.4858Y-1.9291
X8.4858Y-2.5291
X8.5858Y-1.9291
X8.5858Y-2.5291
X8.6858Y-1.9291
X8.6858Y-2.5291
X8.7858Y-1.9291
X8.7858Y-2.5291
X8.8858Y-1.9291
X8.8858Y-2.5291
X8.9858Y-1.9291
X8.9858Y-2.5291
X9.0858Y-1.9291
X9.0858Y-2.5291
X9.1858Y-1.9291
X9.1858Y-2.5291
X9.2858Y-1.9291
X9.2858Y-2.5291
X9.3858Y-1.9291
X9.3858Y-2.5291
X9.4858Y-1.9291
X9.4858Y-2.5291
X9.5858Y-1.9291
X9.5858Y-2.5291
X9.6858Y-1.9291
X9.6858Y-2.5291
X9.7858Y-1.9291
X9.7858Y-2.5291
X9.8858Y-1.9291
X9.8858Y-2.5291
X9.9858Y-1.9291
X9.9858Y-2.5291
X10.0858Y-1.9291
X10.0858Y-2.5291
X10.1858Y-1.9291
X10.1858Y-2.5291
X10.2858Y-1.9291
X10.2858Y-2.5291
X5.4142Y-5.4055
X5.4142Y-5.5055
X5.4142Y-5.6055
X5.4142Y-5.7055
X5.4142Y-5.8055
X5.4142Y-5.9055
X5.4142Y-6.0055
X5.4142Y-6.1055
X5.4142Y-6.2055
X5.4142Y-6.3055
X5.4142Y-6.4055
X5.5142Y-5.3055
X5.5142Y-5.4055
X5.5142Y-5.5055
X5.5142Y-5.6055
X5.5142Y-5.7055
X5.5142Y-5.8055
X5.5142Y-5.9055
X5.5142Y-6.0055
X5.5142Y-6.1055
X5.5142Y-6.2055
X5.5142Y-6.3055
X5.5142Y-6.4055
X5.5142Y-6.5055
X5.6142Y-5.3055
X5.6142Y-5.4055
X5.6142Y-6.4055
X5.6142Y-6.5055
X5.7142Y-5.3055
X5.7142Y-5.4055
X5.7142Y-6.4055
X5.7142Y-6.5055
X5.8142Y-5.3055
X5.8142Y-5.4055
X5.8142Y-6.4055
X5.8142Y-6.5055
X5.9142Y-5.3055
X5.9142Y-5.4055
X5.9142Y-6.4055
X5.9142Y-6.5055
X6.0142Y-5.3055
X6.0142Y-5.4055
X6.0142Y-6.4055
X6.0142Y-6.5055
X6.1142Y-5.3055
X6.1142Y-5.4055
X6.1142Y-6.4055
X6.1142Y-6.5055
X6.2142Y-5.3055
X6.2142Y-5.4055
X6.2142Y-6.4055
X6.2142Y-6.5055
X6.3142Y-5.3055
X6.3142Y-5.4055
X6.3142Y-6.4055
X6.3142Y-6.5055
X6.4142Y-5.3055
X6.4142Y-5.4055
X6.4142Y-6.4055
X6.4142Y-6.5055
X6.5142Y-5.3055
X6.5142Y-5.4055
X6.5142Y-5.5055
X6.5142Y-5.6055
X6.5142Y-5.7055
X6.5142Y-5.8055
X6.5142Y-5.9055
X6.5142Y-6.0055
X6.5142Y-6.1055
X6.5142Y-6.2055
X6.5142Y-6.3055
X6.5142Y-6.4055
X6.5142Y-6.5055
X6.6142Y-5.4055
X6.6142Y-5.5055
X6.6142Y-5.6055
X6.6142Y-5.7055
X6.6142Y-5.8055
X6.6142Y-5.9055
X6.6142Y-6.0055
X6.6142Y-6.1055
X6.6142Y-6.2055
X6.6142Y-6.3055
X6.6142Y-6.4055
X3.7213Y-5.4055
X3.7213Y-5.5055
X3.7213Y-5.6055
X3.7213Y-5.7055
X3.7213Y-5.8055
X3.7213Y-5.9055
X3.7213Y-6.0055
X3.7213Y-6.1055
X3.7213Y-6.2055
X3.7213Y-6.3055
X3.7213Y-6.4055
X3.8213Y-5.3055
X3.8213Y-5.4055
X3.8213Y-5.5055
X3.8213Y-5.6055
X3.8213Y-5.7055
X3.8213Y-5.8055
X3.8213Y-5.9055
X3.8213Y-6.0055
X3.8213Y-6.1055
X3.8213Y-6.2055
X3.8213Y-6.3055
X3.8213Y-6.4055
X3.8213Y-6.5055
X3.9213Y-5.3055
X3.9213Y-5.4055
X3.9213Y-6.4055
X3.9213Y-6.5055
X4.0213Y-5.3055
X4.0213Y-5.4055
X4.0213Y-6.4055
X4.0213Y-6.5055
X4.1213Y-5.3055
X4.1213Y-5.4055
X4.1213Y-6.4055
X4.1213Y-6.5055
X4.2213Y-5.3055
X4.2213Y-5.4055
X4.2213Y-6.4055
X4.2213Y-6.5055
X4.3213Y-5.3055
X4.3213Y-5.4055
X4.3213Y-6.4055
X4.3213Y-6.5055
X4.4213Y-5.3055
X4.4213Y-5.4055
X4.4213Y-6.4055
X4.4213Y-6.5055
X4.5213Y-5.3055
X4.5213Y-5.4055
X4.5213Y-6.4055
X4.5213Y-6.5055
X4.6213Y-5.3055
X4.6213Y-5.4055
X4.6213Y-6.4055
X4.6213Y-6.5055
X4.7213Y-5.3055
X4.7213Y-5.4055
X4.7213Y-6.4055
X4.7213Y-6.5055
X4.8213Y-5.3055
X4.8213Y-5.4055
X4.8213Y-5.5055
X4.8213Y-5.6055
X4.8213Y-5.7055
X4.8213Y-5.8055
X4.8213Y-5.9055
X4.8213Y-6.0055
X4.8213Y-6.1055
X4.8213Y-6.2055
X4.8213Y-6.3055
X4.8213Y-6.4055
X4.8213Y-6.5055
X4.9213Y-5.4055
X4.9213Y-5.5055
X4.9213Y-5.6055
X4.9213Y-5.7055
X4.9213Y-5.8055
X4.9213Y-5.9055
X4.9213Y-6.0055
X4.9213Y-6.1055
X4.9213Y-6.2055
X4.9213Y-6.3055
X4.9213Y-6.4055
X1.7323Y-8.6614
X1.7323Y-8.7614
X1.7323Y-8.8614
X1.7323Y-8.9614
X1.7323Y-9.0614
X1.7323Y-9.1614
X1.7323Y-9.2614
X1.7323Y-9.3614
X1.7323Y-9.4614
X1.7323Y-9.5614
X2.0323Y-8.6614
X2.0323Y-8.7614
X2.0323Y-8.8614
X2.0323Y-8.9614
X2.0323Y-9.0614
X2.0323Y-9.1614
X2.0323Y-9.2614
X2.0323Y-9.3614
X2.0323Y-9.4614
X2.0323Y-9.5614
X3.9764Y-3.937
X3.9764Y-4.537
X4.0764Y-3.937
X4.0764Y-4.537
X4.1764Y-3.937
X4.1764Y-4.537
X4.2764Y-3.937
X4.2764Y-4.537
X4.3764Y-3.937
X4.3764Y-4.537
X4.4764Y-3.937
X4.4764Y-4.537
X4.5764Y-3.937
X4.5764Y-4.537
X4.6764Y-3.937
X4.6764Y-4.537
X4.7764Y-3.937
X4.7764Y-4.537
X4.8764Y-3.937
X4.8764Y-4.537
X4.9764Y-3.937
X4.9764Y-4.537
X5.0764Y-3.937
X5.0764Y-4.537
X5.1764Y-3.937
X5.1764Y-4.537
X5.2764Y-3.937
X5.2764Y-4.537
X5.3764Y-3.937
X5.3764Y-4.537
X5.4764Y-3.937
X5.4764Y-4.537
X5.5764Y-3.937
X5.5764Y-4.537
X5.6764Y-3.937
X5.6764Y-4.537
X5.7764Y-3.937
X5.7764Y-4.537
X5.8764Y-3.937
X5.8764Y-4.537
X5.9764Y-3.937
X5.9764Y-4.537
X6.0764Y-3.937
X6.0764Y-4.537
X6.1764Y-3.937
X6.1764Y-4.537
X6.2764Y-3.937
X6.2764Y-4.537
X2.2835Y-8.6614
X2.2835Y-8.7614
X2.2835Y-8.8614
X2.2835Y-8.9614
X2.2835Y-9.0614
X2.2835Y-9.1614
X2.2835Y-9.2614
X2.2835Y-9.3614
X2.2835Y-9.4614
X2.2835Y-9.5614
X2.5835Y-8.6614
X2.5835Y-8.7614
X2.5835Y-8.8614
X2.5835Y-8.9614
X2.5835Y-9.0614
X2.5835Y-9.1614
X2.5835Y-9.2614
X2.5835Y-9.3614
X2.5835Y-9.4614
X2.5835Y-9.5614
X3.3858Y-8.6614
X3.3858Y-8.7614
X3.3858Y-8.8614
X3.3858Y-8.9614
X3.3858Y-9.0614
X3.3858Y-9.1614
X3.3858Y-9.2614
X3.3858Y-9.3614
X3.3858Y-9.4614
X3.3858Y-9.5614
X3.6858Y-8.6614
X3.6858Y-8.7614
X3.6858Y-8.8614
X3.6858Y-8.9614
X3.6858Y-9.0614
X3.6858Y-9.1614
X3.6858Y-9.2614
X3.6858Y-9.3614
X3.6858Y-9.4614
X3.6858Y-9.5614
X7.1063Y-3.937
X7.1063Y-4.537
X7.2063Y-3.937
X7.2063Y-4.537
X7.3063Y-3.937
X7.3063Y-4.537
X7.4063Y-3.937
X7.4063Y-4.537
X7.5063Y-3.937
X7.5063Y-4.537
X7.6063Y-3.937
X7.6063Y-4.537
X7.7063Y-3.937
X7.7063Y-4.537
X7.8063Y-3.937
X7.8063Y-4.537
X7.9063Y-3.937
X7.9063Y-4.537
X8.0063Y-3.937
X8.0063Y-4.537
X8.1063Y-3.937
X8.1063Y-4.537
X8.2063Y-3.937
X8.2063Y-4.537
X8.3063Y-3.937
X8.3063Y-4.537
X8.4063Y-3.937
X8.4063Y-4.537
X8.5063Y-3.937
X8.5063Y-4.537
X8.6063Y-3.937
X8.6063Y-4.537
X8.7063Y-3.937
X8.7063Y-4.537
X8.8063Y-3.937
X8.8063Y-4.537
X8.9063Y-3.937
X8.9063Y-4.537
X9.0063Y-3.937
X9.0063Y-4.537
X9.1063Y-3.937
X9.1063Y-4.537
X9.2063Y-3.937
X9.2063Y-4.537
X9.3063Y-3.937
X9.3063Y-4.537
X9.4063Y-3.937
X9.4063Y-4.537
X3.937Y-1.5748
X3.937Y-2.1748
X4.037Y-1.5748
X4.037Y-2.1748
X4.137Y-1.5748
X4.137Y-2.1748
X4.237Y-1.5748
X4.237Y-2.1748
X4.337Y-1.5748
X4.337Y-2.1748
X4.437Y-1.5748
X4.437Y-2.1748
X4.537Y-1.5748
X4.537Y-2.1748
X4.637Y-1.5748
X4.637Y-2.1748
X4.737Y-1.5748
X4.737Y-2.1748
X4.837Y-1.5748
X4.837Y-2.1748
X4.937Y-1.5748
X4.937Y-2.1748
X5.037Y-1.5748
X5.037Y-2.1748
X5.137Y-1.5748
X5.137Y-2.1748
X5.237Y-1.5748
X5.237Y-2.1748
X5.337Y-1.5748
X5.337Y-2.1748
X5.437Y-1.5748
X5.437Y-2.1748
X5.537Y-1.5748
X5.537Y-2.1748
X5.637Y-1.5748
X5.637Y-2.1748
X5.737Y-1.5748
X5.737Y-2.1748
X5.837Y-1.5748
X5.837Y-2.1748
X2.8346Y-8.6614
X2.8346Y-8.7614
X2.8346Y-8.8614
X2.8346Y-8.9614
X2.8346Y-9.0614
X2.8346Y-9.1614
X2.8346Y-9.2614
X2.8346Y-9.3614
X2.8346Y-9.4614
X2.8346Y-9.5614
X3.1346Y-8.6614
X3.1346Y-8.7614
X3.1346Y-8.8614
X3.1346Y-8.9614
X3.1346Y-9.0614
X3.1346Y-9.1614
X3.1346Y-9.2614
X3.1346Y-9.3614
X3.1346Y-9.4614
X3.1346Y-9.5614
X6.8772Y-7.3228
X6.8772Y-7.6228
X6.9772Y-7.3228
X6.9772Y-7.6228
X7.0772Y-7.3228
X7.0772Y-7.6228
X7.1772Y-7.3228
X7.1772Y-7.6228
X7.2772Y-7.3228
X7.2772Y-7.6228
X7.3772Y-7.3228
X7.3772Y-7.6228
X7.4772Y-7.3228
X7.4772Y-7.6228
X7.5772Y-7.3228
X7.5772Y-7.6228
X7.6772Y-7.3228
X7.6772Y-7.6228
X3.937Y-8.6614
X3.937Y-8.7614
X3.937Y-8.8614
X3.937Y-8.9614
X3.937Y-9.0614
X3.937Y-9.1614
X3.937Y-9.2614
X3.937Y-9.3614
X3.937Y-9.4614
X3.937Y-9.5614
X4.237Y-8.6614
X4.237Y-8.7614
X4.237Y-8.8614
X4.237Y-8.9614
X4.237Y-9.0614
X4.237Y-9.1614
X4.237Y-9.2614
X4.237Y-9.3614
X4.237Y-9.4614
X4.237Y-9.5614
T6
X4.0551Y-8.2037
X7.9764Y-5.0866
X0.8022Y-2.7067
X7.0472Y-2.9528
X5.0787Y-1.8209
X9.7343Y-1.6929
X2.81Y-5.4823
X7.2835Y-8.0413
X1.3091Y-2.7953
X4.7638Y-7.9528
X1.0433Y-8.8091
X9.7244Y-2.2835
X2.2047Y-8.2087
X4.0945Y-5.9941
X7.4016Y-2.9528
X5.1575Y-5.9793
X1.0138Y-9.3701
X12.5197Y-1.7717
X9.0354Y-2.2835
X6.3386Y-2.185
T7
X4.2094Y-0.4299
X4.2638Y-0.3181
X4.3181Y-0.4299
X4.3724Y-0.3181
X4.4268Y-0.4299
X4.4811Y-0.3181
X4.5354Y-0.4299
X4.5898Y-0.3181
X4.6441Y-0.4299
X4.6984Y-0.3181
X4.7528Y-0.4299
X4.8071Y-0.3181
X4.8614Y-0.4299
X4.9157Y-0.3181
X4.9701Y-0.4299
X5.0244Y-0.3181
X5.0787Y-0.4299
X5.1331Y-0.3181
X5.1874Y-0.4299
X5.2417Y-0.3181
X5.2961Y-0.4299
X5.3504Y-0.3181
X5.4047Y-0.4299
X5.4591Y-0.3181
X5.5134Y-0.4299
X6.5224Y-0.5118
X6.5768Y-0.4118
X6.6311Y-0.5118
X6.6854Y-0.4118
X6.7398Y-0.5118
X6.7941Y-0.4118
X6.8484Y-0.5118
X6.9028Y-0.4118
X6.9571Y-0.5118
X7.0114Y-0.4118
X7.0657Y-0.5118
X7.1201Y-0.4118
X7.1744Y-0.5118
X7.2287Y-0.4118
X7.2831Y-0.5118
X7.3374Y-0.4118
X7.3917Y-0.5118
X7.4461Y-0.4118
X7.5004Y-0.5118
X7.5547Y-0.4118
X7.6091Y-0.5118
X7.6634Y-0.4118
X7.7177Y-0.5118
X7.772Y-0.4118
X7.8264Y-0.5118
X7.8248Y-1.2894
X7.9232Y-1.2894
X8.0217Y-1.2894
X8.1201Y-1.2894
X7.8248Y-1.5453
X7.9232Y-1.5453
X8.0217Y-1.5453
X8.1201Y-1.5453
T8
X8.6417Y-6.6701
X8.6417Y-6.7701
X8.6417Y-6.8701
X8.6417Y-6.9701
X8.6417Y-7.0701
X8.6417Y-7.1701
X8.6417Y-7.2701
X8.6417Y-7.3701
X8.6417Y-7.4701
X8.6417Y-7.5701
X8.6417Y-7.6701
X8.6417Y-7.7701
X8.6417Y-7.8701
X8.6417Y-7.9701
X8.6417Y-8.0701
X8.6417Y-8.1701
X8.6417Y-8.2701
X8.6417Y-8.3701
X8.6417Y-8.4701
X8.6417Y-8.5701
X8.6417Y-8.6701
X8.6417Y-8.7701
X8.6417Y-8.8701
X8.6417Y-8.9701
X8.6417Y-9.0701
X8.6417Y-9.1701
X8.6417Y-9.2701
X8.6417Y-9.3701
X8.7417Y-6.6701
X8.7417Y-6.7701
X8.7417Y-6.8701
X8.7417Y-6.9701
X8.7417Y-7.0701
X8.7417Y-7.1701
X8.7417Y-7.2701
X8.7417Y-7.3701
X8.7417Y-7.4701
X8.7417Y-7.5701
X8.7417Y-7.6701
X8.7417Y-7.7701
X8.7417Y-7.8701
X8.7417Y-7.9701
X8.7417Y-8.0701
X8.7417Y-8.1701
X8.7417Y-8.2701
X8.7417Y-8.3701
X8.7417Y-8.4701
X8.7417Y-8.5701
X8.7417Y-8.6701
X8.7417Y-8.7701
X8.7417Y-8.8701
X8.7417Y-8.9701
X8.7417Y-9.0701
X8.7417Y-9.1701
X8.7417Y-9.2701
X8.7417Y-9.3701
X13.5935Y-0.5134
X13.6474Y-0.4134
X13.7014Y-0.5134
X13.7553Y-0.4134
X13.8093Y-0.5134
X13.8632Y-0.4134
X13.9171Y-0.5134
X13.9711Y-0.4134
X14.025Y-0.5134
X1.0799Y-0.3268
X1.1344Y-0.215
X1.189Y-0.3268
X1.2435Y-0.215
X1.298Y-0.3268
X1.3526Y-0.215
X1.4071Y-0.3268
X1.4616Y-0.215
X1.5161Y-0.3268
X1.5707Y-0.215
X1.6252Y-0.3268
X1.6797Y-0.215
X1.7343Y-0.3268
X1.7888Y-0.215
X1.8433Y-0.3268
X1.8978Y-0.215
X1.9524Y-0.3268
X2.0069Y-0.215
X2.0614Y-0.3268
X2.1159Y-0.215
X2.1705Y-0.3268
X2.225Y-0.215
X2.2795Y-0.3268
X0.3642Y-1.6388
X0.4642Y-1.6388
X0.5642Y-1.6388
X0.6642Y-1.6388
X0.7642Y-1.6388
X0.8642Y-1.6388
X0.9642Y-1.6388
X1.0642Y-1.6388
X1.1642Y-1.6388
X1.2642Y-1.6388
X1.3642Y-1.6388
X1.4642Y-1.6388
X1.5642Y-1.6388
X1.6642Y-1.6388
X1.7642Y-1.6388
X1.8642Y-1.6388
X1.9642Y-1.6388
X2.0642Y-1.6388
X2.1642Y-1.6388
X2.2642Y-1.6388
X2.3642Y-1.6388
X2.4642Y-1.6388
X6.2992Y-1.3386
X6.3992Y-1.3386
X6.4992Y-1.3386
X6.5992Y-1.3386
X6.6992Y-1.3386
X6.7992Y-1.3386
X6.8992Y-1.3386
X6.9992Y-1.3386
X8.528Y-1.2598
X8.528Y-1.3598
X8.628Y-1.2598
X8.628Y-1.3598
X8.728Y-1.2598
X8.728Y-1.3598
X8.828Y-1.2598
X8.828Y-1.3598
X8.928Y-1.2598
X8.928Y-1.3598
X9.028Y-1.2598
X9.028Y-1.3598
X9.128Y-1.2598
X9.128Y-1.3598
X9.228Y-1.2598
X9.228Y-1.3598
X9.328Y-1.2598
X9.328Y-1.3598
X9.428Y-1.2598
X9.428Y-1.3598
X9.528Y-1.2598
X9.528Y-1.3598
X9.628Y-1.2598
X9.628Y-1.3598
X9.728Y-1.2598
X9.728Y-1.3598
X9.828Y-1.2598
X9.828Y-1.3598
X9.928Y-1.2598
X9.928Y-1.3598
X10.028Y-1.2598
X10.028Y-1.3598
X10.128Y-1.2598
X10.128Y-1.3598
X12.1368Y-0.5118
X12.1907Y-0.4118
X12.2447Y-0.5118
X12.2986Y-0.4118
X12.3526Y-0.5118
X12.4065Y-0.4118
X12.4604Y-0.5118
X12.5144Y-0.4118
X12.5683Y-0.5118
X8.7835Y-0.3268
X8.838Y-0.215
X8.8925Y-0.3268
X8.947Y-0.215
X9.0016Y-0.3268
X9.0561Y-0.215
X9.1106Y-0.3268
X9.1652Y-0.215
X9.2197Y-0.3268
X9.2742Y-0.215
X9.3287Y-0.3268
X9.3833Y-0.215
X9.4378Y-0.3268
X9.4923Y-0.215
X9.5469Y-0.3268
X9.6014Y-0.215
X9.6559Y-0.3268
X9.7104Y-0.215
X9.765Y-0.3268
X9.8195Y-0.215
X9.874Y-0.3268
X9.9285Y-0.215
X9.9831Y-0.3268
T9
X0.1821Y-0.748
X0.2805Y-0.748
X0.3789Y-0.748
X0.4774Y-0.748
X7.0984Y-3.4331
X7.1969Y-3.4331
X7.2953Y-3.4331
X7.3937Y-3.4331
T10
X3.0165Y-0.0565
X3.418Y-0.0565
T11
X2.9134Y-0.4253
X2.9149Y-0.6268
X3.0243Y-0.5159
X3.1134Y-0.1346
X3.2087Y-0.4331
X3.2102Y-0.1447
X3.3102Y-0.1362
X3.4071Y-0.5346
X3.5009Y-0.444
X3.504Y-0.6253
T12
X11.2598Y-0.3031
X11.5551Y-0.3031
X0.2264Y-0.3031
X0.5217Y-0.3031
X10.6693Y-0.3031
X10.9646Y-0.3031
T13
X3.002Y-0.9547
X3.002Y-1.2297
X3.202Y-0.9547
X3.202Y-1.2297
X3.402Y-0.9547
X3.402Y-1.2297
X3.602Y-0.9547
X3.602Y-1.2297
T14
X11.4075Y-0.1575
X0.374Y-0.1575
X10.8169Y-0.1575
T15
X2.9321Y-0.1909
T16
X11.8606Y-0.4618
X12.8445Y-0.4618
X8.5106Y-0.315
X10.2559Y-0.315
X3.9354Y-0.374
X5.7874Y-0.374
X13.3173Y-0.4634
X14.3012Y-0.4634
X0.8071Y-0.315
X2.5524Y-0.315
X6.2484Y-0.4618
X8.1004Y-0.4618
T17
X4.2052Y-5.7849
X4.4464Y-6.0261
X5.8981Y-5.7849
X6.1393Y-6.0261
X0.748Y-3.5433
X13.4213Y-4.7244
X13.4213Y-0.9843
X0.748Y-8.3858
X7.0079Y-9.685
X0.315Y-9.685
T0
M30
